<?xml version="1.0" standalone="no"?>
<!DOCTYPE svg PUBLIC "-//W3C//DTD SVG 1.1//EN" "http://www.w3.org/Graphics/SVG/1.1/DTD/svg11.dtd" >
<svg xmlns="http://www.w3.org/2000/svg">
<metadata></metadata>
<defs>
<font id="ScalaBold" horiz-adv-x="512" >
<font-face units-per-em="2048" ascent="1638" descent="-410" />
<missing-glyph horiz-adv-x="500" />
<glyph unicode="&#xfb01;" horiz-adv-x="1181" d="M39 803v63l143 43l2 164q2 127 42 208t132 140q63 41 146 64q70 18 143 18q96 0 177 -25.5t182 -86.5l-144 -177q-61 53 -98 84t-62.5 50.5t-49 32t-56.5 28.5q-96 -18 -134 -70.5t-38 -164.5v-138l-2 -129h377l143 37h82v-858h123v-86h-485v86h120v717h-362v-717h119 v-86h-482v86h121v717h-139z" />
<glyph unicode="&#xfb02;" horiz-adv-x="1185" d="M37 803v61l145 49v166q0 92 35 171t98.5 136.5t149.5 89t188 31.5q53 0 92 -7t105 -32l98 41h80v-1423h121v-86h-485l2 86h122v717h-366v-717h119v-86h-482v86h123v717h-145zM422 907h366v363q-29 27 -50 44t-41.5 32.5t-46 30t-62.5 34.5q-55 -16 -88 -36.5t-50.5 -58.5 t-22.5 -100.5t-5 -166.5v-142z" />
<glyph horiz-adv-x="0" />
<glyph horiz-adv-x="2048" />
<glyph unicode=" " />
<glyph unicode="!" horiz-adv-x="540" d="M135 1509h273l-70 -1116h-125zM154 94q0 47 34.5 82t81.5 35t82 -35t35 -82t-35 -82t-82 -35t-81.5 35t-34.5 82z" />
<glyph unicode="&#x22;" horiz-adv-x="837" d="M166 885v463h172v-463h-172zM496 885v463h170v-463h-170z" />
<glyph unicode="#" horiz-adv-x="1126" d="M6 420l29 151h221l45 234h-221l29 149h223l78 394h155l-76 -394h259l75 394h162l-76 -394h211l-28 -149h-213l-43 -234h215l-29 -151h-217l-82 -420h-162l82 420h-260l-82 -420h-160l84 420h-219zM416 571h256l47 234h-260z" />
<glyph unicode="$" horiz-adv-x="1112" d="M82 92l131 209q33 -41 57.5 -68.5t48 -49t53 -41t72.5 -46.5l78 6v467q-25 16 -43 27.5t-33 21.5q-84 53 -133 87t-78.5 58.5t-48 46t-36.5 52.5q-43 68 -44 162q0 74 30 136.5t84 108.5t131 75.5t171 35.5v119h94v-117q82 -4 135.5 -9t93.5 -15t74.5 -25.5t79.5 -42.5 l-137 -194q-29 37 -50 60.5t-41.5 42t-46.5 34.5t-65 37l-43 -6v-439q35 -23 62 -39t43 -26q70 -43 119 -78t82.5 -64.5t55 -58.5t38.5 -59q33 -66 33 -138q0 -80 -32 -147.5t-88.5 -118.5t-136 -80.5t-176.5 -35.5v-119h-94v112q-92 6 -153.5 13.5t-107.5 19.5t-87 32.5 t-92 53.5zM375 1081q0 -29 6 -52t22.5 -45.5t45 -46.5t73.5 -54v372q-72 -12 -109.5 -57t-37.5 -117zM616 113q88 33 123 72.5t35 109.5q0 72 -36 123t-122 100v-405z" />
<glyph unicode="%" horiz-adv-x="1740" d="M70 1014q0 74 28.5 139.5t76.5 114.5t113.5 77.5t139.5 28.5t139.5 -28.5t114.5 -77.5t76.5 -114.5t27.5 -139.5t-27.5 -139.5t-76.5 -114.5t-114.5 -77t-139.5 -28t-139.5 28t-113.5 77t-76.5 114.5t-28.5 139.5zM209 -94l1145 1501h194l-1179 -1501h-160zM227 1014 q0 -84 58.5 -142.5t142.5 -58.5q86 0 143.5 58.5t57.5 142.5t-57.5 142t-143.5 58q-84 0 -142.5 -58t-58.5 -142zM954 332q0 74 28 139.5t77 114.5t114.5 76.5t139.5 27.5t139.5 -27.5t113.5 -76.5t76.5 -114.5t28.5 -139.5t-28.5 -139.5t-76.5 -113.5t-114 -77t-139 -29 q-74 0 -139.5 29t-114.5 77t-77 113.5t-28 139.5zM1112 332q0 -84 57.5 -142.5t143.5 -58.5q84 0 142 58.5t58 142.5t-58 142t-142 58q-86 0 -143.5 -58t-57.5 -142z" />
<glyph unicode="&#x26;" horiz-adv-x="1439" d="M33 356q0 250 332 439l-72 104q-31 43 -51.5 78t-32.5 65.5t-17.5 59t-5.5 61.5q0 80 31 144.5t87 110.5t136 70.5t176 24.5q78 0 142.5 -20t112 -56t74 -86.5t26.5 -109.5q0 -68 -37 -127t-117 -121l-106 -82l-64 84q66 47 92.5 98.5t26.5 125.5q0 86 -44 136t-118 50 q-78 0 -126 -51t-48 -137q0 -57 20.5 -109.5t73.5 -124.5l408 -563q23 33 38 56.5t27.5 49t26.5 57t33 79.5h-172v86h463v-86h-162q-18 -59 -38 -104.5t-41.5 -86.5t-48 -81t-61.5 -85q59 -78 106.5 -113.5t90.5 -35.5q16 0 30.5 5t31 19.5t38 39t49.5 65.5l97 -80 q-49 -74 -85 -119t-68 -70.5t-66.5 -34t-81.5 -8.5q-92 0 -158 34t-135 116q-53 -43 -96 -73t-85 -46t-85 -23.5t-99 -7.5q-100 0 -183 28t-141.5 79t-91 120.5t-32.5 155.5zM295 393q0 -125 63.5 -202.5t167.5 -77.5q68 0 126.5 25.5t117.5 84.5l-338 471 q-137 -125 -137 -301z" />
<glyph unicode="'" d="M172 885v463h170v-463h-170z" />
<glyph unicode="(" horiz-adv-x="632" d="M141 414q0 174 34 329.5t108 329.5q23 51 39 88t33.5 66.5t37 58.5t45.5 66h158q-47 -90 -86 -204t-66.5 -238t-43 -251t-15.5 -245q0 -119 15.5 -246t43 -251t66.5 -237.5t86 -203.5h-158q-27 37 -46 65.5t-36.5 59t-34 66.5t-38.5 87q-74 174 -108 330t-34 330z" />
<glyph unicode=")" horiz-adv-x="632" d="M37 -524q45 90 84 203.5t66.5 237.5t43 251t15.5 246t-15.5 245.5t-43 250.5t-65.5 238t-85 204h158q27 -37 46 -66t35.5 -58.5t33 -66.5t38.5 -88q76 -174 108.5 -329.5t32.5 -329.5t-32.5 -330t-108.5 -330q-23 -51 -39 -87t-32.5 -66.5t-36 -59t-45.5 -65.5h-158z" />
<glyph unicode="*" horiz-adv-x="1024" d="M43 983l68 209l327 -180l-24 -76zM154 637l272 256l66 -49l-158 -338zM403 1403h222l-70 -367h-82zM532 846l66 49l272 -256l-178 -131zM586 1012l327 178l68 -209l-371 -47z" />
<glyph unicode="+" horiz-adv-x="1126" d="M78 401v168h401v402h168v-402h402v-168h-402v-401h-168v401h-401z" />
<glyph unicode="," d="M94 -207q72 59 102.5 102.5t30.5 88.5q0 43 -24.5 69.5t-81.5 42.5q27 66 57.5 91.5t83.5 25.5q66 0 101.5 -38.5t35.5 -104.5q0 -170 -221 -357z" />
<glyph unicode="-" horiz-adv-x="563" d="M66 354v230h426v-230h-426z" />
<glyph unicode="." d="M119 115q0 57 40 97t97 40t97 -40t40 -97t-40 -97.5t-97 -40.5t-97 40t-40 98z" />
<glyph unicode="/" horiz-adv-x="837" d="M84 -498l516 1850h154l-514 -1850h-156z" />
<glyph unicode="0" horiz-adv-x="1234" d="M121 471q0 104 39 195.5t106.5 159t157.5 106.5t194 39q102 0 193.5 -39t159 -106.5t106.5 -159t39 -195.5q0 -102 -39 -193.5t-106.5 -159t-158.5 -106.5t-194 -39q-104 0 -194 39t-157.5 106.5t-106.5 159t-39 193.5zM307 471q0 -63 24.5 -119.5t66.5 -98.5t98.5 -66.5 t121.5 -24.5q63 0 121 24.5t99 66.5t65.5 98.5t24.5 119.5t-24.5 120.5t-65.5 99.5t-98.5 66.5t-121.5 24.5q-66 0 -122 -24.5t-98 -66.5t-66.5 -99.5t-24.5 -120.5z" />
<glyph unicode="1" horiz-adv-x="792" d="M111 0v86h165v772h-165v86h571v-86h-166v-772h166v-86h-571z" />
<glyph unicode="2" horiz-adv-x="1081" d="M94 0v100l336 262q182 141 182 304q0 82 -38.5 132t-104.5 50t-126 -36t-140 -120l-76 74q51 57 96 97t91 63.5t96.5 34t111.5 10.5q158 0 252 -75t94 -200q0 -45 -10 -81.5t-35.5 -73.5t-68.5 -77t-111 -91l-293 -221h502v184h119v-336h-877z" />
<glyph unicode="3" horiz-adv-x="882" d="M68 -408q109 8 195.5 41t148 86.5t94.5 125t33 157.5q0 123 -63.5 200t-168.5 77h-90v67q68 51 113 94t72.5 86t39 89.5t11.5 99.5q0 66 -27 100.5t-80 34.5q-23 0 -44 -6t-43.5 -20.5t-48.5 -40t-58 -62.5l-70 76q43 49 81 82.5t77 53t82 29t94 9.5q66 0 121 -19.5 t95 -53.5t62.5 -81t22.5 -102q0 -188 -275 -314q78 -4 121 -20t92 -55q133 -109 133 -289q0 -88 -34.5 -170t-99 -150.5t-154.5 -121.5t-201 -84q-27 -6 -50.5 -11.5t-49 -9.5t-57 -8t-74.5 -6v116z" />
<glyph unicode="4" horiz-adv-x="1124" d="M16 0v37l738 934h94v-819h100l74 2v-154h-174v-498h-240v498h-592zM264 152h344v444z" />
<glyph unicode="5" horiz-adv-x="884" d="M102 -401q49 6 86 13t66 17.5t55.5 24.5t55.5 37q84 59 121.5 136t37.5 185q0 115 -45 199t-127 123q-23 10 -41 17t-39.5 12.5t-50 9.5t-71.5 10v561h509v100h105v-270h-510v-262q131 -10 219 -41t164 -90q72 -57 113 -146.5t41 -185.5q0 -119 -70 -236.5t-191 -201.5 q-47 -33 -90 -55.5t-91 -38t-107.5 -25.5t-139.5 -16v123z" />
<glyph unicode="6" horiz-adv-x="1249" d="M102 586q0 147 43 285.5t120 254t185.5 201.5t237.5 133q45 16 83 26.5t78 16.5t89 8t117 2v-102q-57 -4 -99.5 -8t-77 -11.5t-65.5 -18.5t-65 -27q-61 -29 -114.5 -71t-90.5 -91q-86 -115 -132 -272.5t-46 -336.5q0 -111 19 -199.5t54 -152t84 -98.5t109 -35 q51 0 98 26.5t81 73t54.5 107.5t20.5 131t-21.5 127t-61.5 99t-95.5 64.5t-122.5 22.5h-88l12 101q27 6 47 10t36.5 6t33 3t37.5 1q102 0 191 -32.5t153.5 -89t101.5 -134.5t37 -168q0 -96 -41 -180t-112.5 -147.5t-167 -100.5t-201.5 -37q-115 0 -211.5 45t-165 126 t-106.5 194t-38 248z" />
<glyph unicode="7" horiz-adv-x="1001" d="M51 578v426h133v-60h772v-78l-376 -827q-16 -39 -43 -90t-62 -117t-65.5 -116t-53.5 -87q-31 -53 -104 -153l-189 114q43 37 73 67t54.5 55.5t47 52t47.5 61.5q23 31 47 67.5t49 75.5t45 76t33 66l289 639h-564v-172h-133z" />
<glyph unicode="8" horiz-adv-x="1126" d="M94 348q0 94 44 170t147 160l135 110l-133 117q-141 123 -142 283q0 74 29 133t83 102t129 66.5t167 23.5q88 0 159.5 -23.5t123 -65.5t79 -101t27.5 -131q0 -39 -7 -70.5t-25.5 -62.5t-48.5 -63.5t-73 -71.5l-81 -74l167 -145q84 -72 129.5 -157t45.5 -171t-38 -161 t-105.5 -128t-161 -84t-201.5 -31q-207 0 -328 100.5t-121 274.5zM283 348q0 -123 69.5 -193.5t192.5 -70.5q115 0 184.5 67.5t69.5 178.5q0 61 -27 120.5t-74 100.5l-178 154l-121 -107q-117 -104 -116 -250zM379 1217q0 -55 23.5 -97.5t76.5 -87.5l129 -104l54 55 q47 51 71.5 104.5t24.5 114.5q0 94 -53.5 151.5t-141.5 57.5q-80 0 -132 -54t-52 -140z" />
<glyph unicode="9" horiz-adv-x="1249" d="M100 504q0 94 42 179t113 148.5t166 100.5t202 37q117 0 212 -44t163.5 -125t106.5 -194.5t38 -251.5q0 -193 -67.5 -344t-213.5 -286q-147 -135 -305 -191q-43 -16 -81 -26.5t-78 -16.5t-90 -8t-118 -2v102q57 2 100.5 7t78 12.5t64.5 18.5t65 28q55 29 107 68.5 t97 93.5q94 111 136.5 243.5t42.5 308.5q0 113 -18.5 203t-53.5 154.5t-84 99.5t-111 35q-53 0 -99 -26.5t-80 -72.5t-54.5 -108.5t-20.5 -132.5q0 -141 83 -227t219 -86h88l-13 -99q-53 -12 -82.5 -16t-68.5 -4q-104 0 -192.5 31.5t-154 89t-102.5 134.5t-37 167z" />
<glyph unicode=":" d="M117 115q0 57 40 97t97 40t98 -40t41 -97t-41 -97.5t-98 -40.5t-97 40t-40 98zM117 815q0 57 40 97t97 40t97 -40t40 -97t-40 -97t-97 -40t-97 40t-40 97z" />
<glyph unicode="&#x3c;" horiz-adv-x="1126" d="M80 430v111l967 430v-164l-728 -322l728 -321v-164z" />
<glyph unicode="=" horiz-adv-x="1126" d="M51 223v168h1024v-168h-1024zM51 557v168h1024v-168h-1024z" />
<glyph unicode="&#x3e;" horiz-adv-x="1126" d="M80 0v164l727 321l-727 322v164l967 -430v-111z" />
<glyph unicode="?" horiz-adv-x="837" d="M158 1245l90 262q51 -12 88 -24.5t67.5 -27.5t58 -34.5t60.5 -46.5q106 -90 167 -214t61 -255q0 -147 -76 -236t-205 -89h-96l-37 -187h-88v391h340q4 25 5 37.5t1 28.5q0 98 -46 180t-126 127q-31 16 -54.5 27.5t-51 20.5t-64.5 18.5t-94 21.5zM172 94q0 49 34 84t81 35 q49 0 84 -34t35 -81q2 -49 -33 -85t-84 -36t-83 35t-34 82z" />
<glyph unicode="@" horiz-adv-x="2048" d="M203 446q0 190 63.5 348t178 273t273.5 178.5t349 63.5q186 0 324.5 -55.5t255.5 -178.5q106 -113 154 -236.5t48 -289.5q0 -86 -10 -154.5t-33.5 -124t-59.5 -101.5t-87 -87q-131 -100 -311 -100q-115 0 -167.5 46t-52.5 150q0 27 4.5 56.5t10.5 56.5l22 88 q-35 -57 -64.5 -99t-58 -76t-58.5 -62.5t-64 -55.5q-51 -39 -108.5 -64.5t-98.5 -25.5q-27 0 -49.5 22.5t-39 62.5t-25.5 95t-9 121q0 145 38 270t103.5 217.5t154.5 144.5t193 52q27 0 46.5 -2t39 -7t39 -15.5t45.5 -26.5l62 51h80l-117 -727q-4 -29 -6 -50.5t-2 -35.5 q0 -41 32.5 -63.5t90.5 -22.5q45 0 90 13.5t85 37t73.5 56t54.5 71.5q61 111 61 297q0 137 -40 238.5t-130 201.5q-51 57 -105.5 98.5t-116 67t-131 36.5t-153.5 11q-176 0 -318.5 -53t-243.5 -150.5t-156.5 -235.5t-55.5 -308q0 -195 58.5 -327t191.5 -236q49 -39 97 -66 t101.5 -43t115 -23.5t134.5 -7.5q55 0 98.5 3.5t81.5 11.5t75.5 22.5t80.5 34.5l41 -90q-47 -23 -90 -38t-86 -24.5t-89 -13.5t-101 -4q-86 0 -159 9.5t-135.5 31t-120.5 55t-116 80.5q-145 117 -211.5 264.5t-66.5 343.5zM752 342q0 -172 82 -172q41 0 103 56.5t128 152.5 q33 47 57.5 92t43 95t32.5 107.5t27 127.5q-41 53 -76 74.5t-80 21.5q-61 0 -118.5 -46t-101.5 -123t-70.5 -177t-26.5 -209z" />
<glyph unicode="A" horiz-adv-x="1376" d="M0 0v86h127l528 1309h125l508 -1309h86v-86h-500v86h144l-127 332h-498l-133 -332h164v-86h-424zM442 543h402l-195 512z" />
<glyph unicode="B" horiz-adv-x="1300" d="M102 0v86h156v1180h-156v86h658q188 0 288.5 -84t100.5 -242q0 -150 -90 -229.5t-262 -83.5q203 -6 311.5 -98.5t108.5 -258.5q0 -170 -110 -263t-308 -93h-697zM522 111h142q280 0 280 258q0 127 -74.5 201.5t-197.5 74.5h-150v-534zM522 758h146q45 0 82.5 19.5 t65.5 52t44.5 77.5t16.5 97q0 109 -57.5 172t-155.5 63h-142v-481z" />
<glyph unicode="C" horiz-adv-x="1366" d="M86 672q0 152 54.5 280.5t150.5 223t228 147.5t286 53q100 0 177 -15t167 -54v86h113v-367h-113v131q-43 31 -79 51.5t-69.5 31.5t-67.5 16.5t-75 5.5q-106 0 -195.5 -42t-153 -119t-99 -183.5t-35.5 -233.5q0 -125 39 -232.5t106.5 -187.5t158.5 -125t198 -45 q78 0 139 18.5t133 63.5v156h115v-273q-66 -25 -120 -41t-105.5 -26t-103.5 -14.5t-110 -4.5q-162 0 -298 52.5t-234 144.5t-152.5 220t-54.5 282z" />
<glyph unicode="D" horiz-adv-x="1515" d="M102 0v86h156v1180h-156v86h639q145 0 271.5 -52.5t218.5 -142.5t145.5 -214t53.5 -265t-55.5 -269t-160.5 -231q-98 -92 -210.5 -135t-264.5 -43h-637zM522 113h166q96 0 179 43t143.5 118.5t95.5 179t35 224.5q0 113 -36 214t-96.5 178t-141.5 122t-171 45h-174v-1124z " />
<glyph unicode="E" horiz-adv-x="1189" d="M102 0v86h156v1180h-156v86h844v57h111v-326h-109v148h-426v-483h328v139l111 2v-404l-111 -2v144h-328v-506h445v151h110v-272h-975z" />
<glyph unicode="F" horiz-adv-x="1169" d="M102 0v86h156v1180h-156v86h844v57h111v-326h-109v148h-426v-483h328v139l111 2v-404l-111 -2v144h-328v-541h137v-86h-557z" />
<glyph unicode="G" horiz-adv-x="1525" d="M86 678q0 111 34 215t93 191t143 151.5t185 97.5q68 23 143.5 34t159.5 11q47 0 86 -3t78 -10t79.5 -18.5t90.5 -29.5v76h112v-365h-112v156q-78 41 -147.5 59.5t-160.5 18.5q-104 0 -194 -45.5t-157.5 -124t-105.5 -185t-38 -229.5q0 -119 42 -224.5t112.5 -185.5 t166 -126t201.5 -46q43 0 73.5 6.5t84.5 22.5v340h-176v86h594v-86h-154v-414q-76 -20 -138.5 -35.5t-118.5 -24.5t-107.5 -13.5t-104.5 -4.5q-168 0 -308.5 52.5t-241.5 145.5t-157.5 223t-56.5 284z" />
<glyph unicode="H" horiz-adv-x="1710" d="M102 0v86h156v1180h-156v86h574v-86h-154v-521h666v521h-154v86h574v-86h-156v-1180h156v-86h-574v86h154v539h-666v-539h154v-86h-574z" />
<glyph unicode="I" horiz-adv-x="761" d="M94 0v86h156v1180h-156v86h574v-86h-154v-1180h154v-86h-574z" />
<glyph unicode="J" horiz-adv-x="745" d="M61 -383q92 88 131 183.5t39 234.5v158v1073h-153v86h573v-86h-155v-1303q-37 -78 -68 -132t-67.5 -100t-87 -93.5t-126.5 -110.5z" />
<glyph unicode="K" horiz-adv-x="1337" d="M102 0v86h156v1178l-156 2v86h574v-86h-154v-1180h154v-86h-574zM541 668l444 598h-178v86h491v-86h-157l-367 -490l506 -690h98v-86h-346z" />
<glyph unicode="L" horiz-adv-x="1087" d="M102 0v86h156v1180h-156v86h574v-86h-154v-1145h436v151h111v-272h-967z" />
<glyph unicode="M" horiz-adv-x="1845" d="M78 0v86h172v1180h-172v86h362l486 -953l428 953h405v-86h-172v-1180h172v-86h-608v86h172v885l-451 -991l-493 972v-866h172v-86h-473z" />
<glyph unicode="N" horiz-adv-x="1509" d="M68 1266v86h407l664 -944v858h-162v86h463v-86h-172v-1289h-144l-712 1004v-895h161v-86h-462v86h170v1075l-66 105h-147z" />
<glyph unicode="O" horiz-adv-x="1521" d="M86 676q0 147 52 274t144.5 222.5t215.5 149.5t264 54t265 -54t215 -149.5t144.5 -222.5t53.5 -274t-53.5 -275.5t-144.5 -223.5t-215 -149.5t-265 -54.5t-264 54.5t-215.5 149.5t-144.5 223t-52 276zM375 676q0 -117 31.5 -223.5t85 -186.5t123 -128t147.5 -48t148.5 48 t123.5 128t85 186.5t32 223.5t-32 222.5t-85 185t-123.5 128t-148.5 48.5t-147.5 -48.5t-123 -128t-85 -185t-31.5 -222.5z" />
<glyph unicode="P" horiz-adv-x="1228" d="M102 0v86h156v1180h-156v86h621q94 0 172 -28t133 -79t85 -122.5t30 -159.5q0 -84 -35 -158t-94.5 -129t-138 -88t-168.5 -33q-27 0 -48.5 2t-62.5 10v101q20 -4 30.5 -5t24.5 -1q104 0 160.5 72.5t56.5 209.5q0 293 -223 293h-123v-1151h174v-86h-594z" />
<glyph unicode="Q" horiz-adv-x="1554" d="M86 674q0 147 52 275t144.5 223.5t216.5 149.5t265 54q139 0 262 -54t214 -149.5t144.5 -223.5t53.5 -273q0 -115 -36 -222.5t-99.5 -197.5t-148.5 -155.5t-183 -92.5q109 -117 200 -179t150 -62q23 0 51.5 14t81.5 55l64 -96l-308 -225v2q-53 29 -91 51t-70.5 44.5 t-65.5 48.5t-74 60q-37 31 -65.5 57.5t-57 55.5t-61.5 64.5t-76 85.5q-82 20 -136 37.5t-95 40t-75 53t-77 80.5q-86 100 -133 225t-47 254zM375 676q0 -115 31.5 -221.5t85 -187.5t123 -129t145.5 -48q78 0 148.5 48t123.5 128t85 186.5t32 223.5q0 113 -32 218t-85 187 t-121.5 130.5t-142.5 48.5q-80 0 -150.5 -47.5t-125 -127t-86 -186t-31.5 -223.5z" />
<glyph unicode="R" horiz-adv-x="1339" d="M102 0v86h156v1180h-156v86h605q133 0 212.5 -22.5t135.5 -78.5q100 -100 100 -264q0 -274 -287 -362l291 -447q35 -53 58.5 -71.5t54.5 -18.5h84v-88h-260q-45 0 -74 4t-50.5 16.5t-41 36t-45.5 64.5l-307 481h-56v-516h154v-86h-574zM522 705h121q106 0 172 75.5 t66 198.5t-59.5 190.5t-170.5 67.5h-129v-532z" />
<glyph unicode="S" horiz-adv-x="1150" d="M166 1001q0 84 29.5 154t84 119t131 75.5t171.5 26.5q59 0 110 -10t111 -35v62h110v-351h-110v142q-66 41 -113 58.5t-104 17.5q-80 0 -134.5 -50.5t-54.5 -122.5q0 -31 10.5 -57t38 -55t74.5 -63.5t121 -82.5q72 -47 116 -74.5t60 -39.5q74 -51 125 -133q57 -94 57 -211 q0 -88 -30.5 -161t-85 -125t-129 -82t-164.5 -30t-159 19.5t-140 60.5v-71h-113v368h113v-151q70 -55 128 -78t134 -23q96 0 157.5 51.5t61.5 131.5q0 35 -12 65.5t-41 63t-77 68.5t-120 83q-76 47 -121 77t-73.5 51.5t-46 40t-37.5 40.5q-39 45 -58.5 104.5t-19.5 126.5z " />
<glyph unicode="T" horiz-adv-x="1228" d="M16 1061v348h113v-57h971v57h112v-348h-112v170h-352v-1145h196v-86h-659v86h198v1145h-354v-170h-113z" />
<glyph unicode="U" horiz-adv-x="1597" d="M102 1266v86h574v-86h-154v-764q0 -78 7.5 -135.5t24.5 -99.5t44 -71.5t66 -50.5q78 -39 170 -39q186 0 287.5 103.5t101.5 292.5v762h-170v88h475v-86h-172v-770q0 -174 -61.5 -286t-192.5 -173q-139 -63 -297 -64q-125 0 -225.5 33t-172 93.5t-110.5 146.5t-39 192v828 h-156z" />
<glyph unicode="V" horiz-adv-x="1353" d="M-16 1266v86h557v-86h-174l366 -940l369 940h-148v86h416v-86h-119l-508 -1301h-131l-508 1301h-120z" />
<glyph unicode="W" horiz-adv-x="1929" d="M-16 1266v86h497v-86h-114l366 -940l166 417l-205 523h-114v86h790v-86h-145l-142 -365l236 -590l373 955h-148v86h402v-86h-103l-508 -1301h-131l-231 588l-230 -588h-131l-508 1301h-120zM940 1266l80 -205l82 205h-162z" />
<glyph unicode="X" horiz-adv-x="1351" d="M-16 0v86h155l414 559l-391 621h-158v86h590v-86h-135l256 -406l301 406h-180v86h514v-86h-162l-395 -531l413 -649h162v-86h-592v86h133l-274 436l-326 -436h189v-86h-514z" />
<glyph unicode="Y" horiz-adv-x="1253" d="M-16 1266v86h573v-86h-151l290 -449l273 449h-174v86h477v-86h-148l-342 -561v-619h156v-86h-573v86h153v565l-405 615h-129z" />
<glyph unicode="Z" horiz-adv-x="1368" d="M121 0v61l762 1170h-652v-164h-110v342h110v-57h975v-64l-755 -1167h686v211h110v-332h-1126z" />
<glyph unicode="[" d="M106 -498v1850h365v-127h-174v-1596h174v-127h-365z" />
<glyph unicode="\" horiz-adv-x="837" d="M84 1352h156l514 -1850h-154z" />
<glyph unicode="]" d="M41 -387h174v1628h-174v111h365v-1850h-365v111z" />
<glyph unicode="^" horiz-adv-x="692" d="M61 1083l230 338h125l219 -338h-107l-174 181l-176 -181h-117z" />
<glyph unicode="_" horiz-adv-x="1024" d="M0 0h1024v-168h-1024v168z" />
<glyph unicode="`" horiz-adv-x="528" d="M27 1413h223l244 -330h-144z" />
<glyph unicode="a" horiz-adv-x="935" d="M35 211q0 92 51 153.5t147 84.5l299 67v217q0 78 -22.5 109.5t-77.5 31.5q-25 0 -45 -5t-57 -21v-103l-234 -57q-10 18 -13 29.5t-3 27.5q0 94 97 150.5t257 56.5q166 0 252 -57t86 -168v-621h123v-67l-137 -43q-45 -14 -96 -14q-109 0 -123 112q-51 -66 -106.5 -93.5 t-139.5 -27.5q-119 0 -188.5 63.5t-69.5 174.5zM268 233q0 -59 29 -96t76 -37q37 0 72.5 19.5t86.5 66.5v226l-264 -62v-117z" />
<glyph unicode="b" horiz-adv-x="1077" d="M4 1364v66l293 79h90v-1415q31 -16 50.5 -22t41.5 -6q61 0 113.5 31.5t90.5 87t60.5 131t22.5 163.5q0 166 -59.5 264.5t-157.5 98.5h-86v82q59 18 93 23t77 5q88 0 160.5 -31.5t124 -88t80 -137.5t28.5 -179q0 -109 -34 -210t-93 -171q-72 -86 -174.5 -124t-249.5 -38 q-37 0 -68.5 2t-67.5 6.5t-82 13.5t-110 21v1348h-143z" />
<glyph unicode="c" horiz-adv-x="880" d="M43 449q0 106 37 198t103.5 159.5t155.5 106.5t193 39q106 0 178 -21.5t146 -72.5l-129 -129q-29 27 -48.5 44.5t-38.5 30.5t-43 26.5t-58 31.5q-240 -102 -240 -377q0 -78 23.5 -148.5t63.5 -125.5t92 -88t108 -33q49 0 94 17.5t123 64.5l53 -90q-115 -59 -195.5 -84 t-162.5 -25q-100 0 -183.5 36t-143.5 98.5t-94 149.5t-34 192z" />
<glyph unicode="d" horiz-adv-x="1089" d="M43 442q0 109 38 202t103.5 161.5t156.5 107.5t196 39q43 0 71.5 -5t77.5 -21v438h-143v66l295 79h90v-1384h143v-68l-295 -77h-90v118q-37 -37 -65.5 -61.5t-57 -37.5t-59.5 -19.5t-70 -6.5q-86 0 -157.5 35t-124 98.5t-81 148.5t-28.5 187zM303 471q0 -74 16.5 -138.5 t46 -113.5t68.5 -76.5t84 -27.5q78 0 168 90v497q0 82 -26.5 119t-84.5 37q-57 0 -107 -29.5t-87 -82t-57.5 -123t-20.5 -152.5z" />
<glyph unicode="e" horiz-adv-x="944" d="M43 459q0 111 34 202t95 155.5t147.5 100t192.5 35.5q88 0 162 -26.5t125 -75.5t79.5 -117.5t28.5 -152.5v-78h-612q0 -193 80 -302.5t219 -109.5q29 0 53.5 4t53 16.5t68.5 34t99 56.5l47 -90q-76 -43 -130 -70t-99 -42t-89 -20.5t-97 -5.5q-102 0 -187.5 35 t-144.5 98.5t-92 153.5t-33 199zM297 606h356v49q0 92 -40 150.5t-103 58.5q-82 0 -140.5 -70.5t-72.5 -187.5z" />
<glyph unicode="f" horiz-adv-x="667" d="M37 803v65l143 45v168q0 123 39 202t135 147q61 43 129 63t154 20q92 0 160.5 -17t144.5 -60l-139 -172q-33 31 -56.5 50t-46 35.5t-49 33t-65.5 38.5q-55 -16 -89 -34.5t-50.5 -57.5t-21.5 -106.5t-5 -180.5v-135h211v-104h-211v-717h170v-86h-531v86h121v717h-143z" />
<glyph unicode="g" horiz-adv-x="1038" d="M31 47q35 49 60.5 83t49 61.5t50 52t63.5 57.5q-176 109 -176 291q0 82 27.5 149.5t80 113.5t126 71.5t163.5 25.5q150 0 270 -61h140l145 35v-140h-172q35 -41 48.5 -80.5t13.5 -99.5q0 -166 -109 -262t-301 -96q-43 0 -71.5 3t-80.5 13q-49 -49 -69.5 -78.5 t-20.5 -52.5q0 -37 51 -37h512q193 0 193 -190q0 -92 -41 -170t-111.5 -136.5t-169 -91t-210.5 -32.5q-154 0 -261.5 48t-195.5 159q18 33 30.5 57t26.5 43.5t30.5 40t41.5 49.5q14 16 30.5 33.5t32.5 38.5q-68 16 -108.5 36.5t-87.5 65.5zM287 -236q0 -86 65.5 -140 t169.5 -54q59 0 112.5 20.5t93.5 55.5t62.5 83t22.5 101q0 47 -22.5 66.5t-77.5 19.5h-371q-33 -53 -44 -85t-11 -67zM328 602q0 -123 46 -192.5t126 -69.5t126 69.5t46 192.5t-46 192.5t-126 69.5t-126 -69.5t-46 -192.5z" />
<glyph unicode="h" horiz-adv-x="1163" d="M16 1364v66l295 79h90v-729q49 51 90 84t79 52.5t77 27.5t88 8q129 0 197.5 -65.5t68.5 -190.5v-610h121v-86h-481v86h121v571q0 92 -24.5 127t-88.5 35q-31 0 -54.5 -5t-49 -20.5t-59 -45t-85.5 -76.5v-586h121v-86h-481v86h121v1278h-146z" />
<glyph unicode="i" horiz-adv-x="577" d="M45 803v65l295 80h80v-862h121v-86h-482v86h121v717h-135zM145 1300q0 59 43 102.5t103 43.5q59 0 102 -43t43 -103q0 -61 -43 -103t-102 -42t-102.5 42t-43.5 103z" />
<glyph unicode="j" horiz-adv-x="563" d="M57 803v65l295 80h80v-1059q-35 -66 -58.5 -108.5t-52 -83.5t-71.5 -91t-113 -130l-76 65q43 55 69 95t40 81t18.5 91.5t4.5 123.5v871h-136zM160 1300q0 59 42 102.5t103 43.5q59 0 102.5 -43t43.5 -103q0 -61 -43 -103t-103 -42q-61 0 -103 42t-42 103z" />
<glyph unicode="k" horiz-adv-x="1040" d="M16 1374v56l295 79h90v-1423h121v-86h-481v86h121v1288h-146zM406 467l319 375h-123v86h408v-86h-113l-258 -291l313 -465h86v-86h-325z" />
<glyph unicode="l" horiz-adv-x="546" d="M16 1364v66l295 79h82v-1423h121v-86h-481v86h121v1278h-138z" />
<glyph unicode="m" horiz-adv-x="1808" d="M45 803v65l295 80h90v-162q47 47 87 79t79 51.5t78 27.5t84 8q117 0 180 -46t90 -150q88 109 166 152.5t180 43.5q123 0 198 -69.5t75 -184.5v-612h118v-86h-479v86h119v571q0 86 -24.5 123t-84.5 37q-31 0 -58.5 -8t-57 -26.5t-63.5 -50.5t-79 -81v-565h111v-86h-463v86 h111v569q0 86 -28 124t-89 38q-63 0 -117.5 -32.5t-132.5 -118.5v-580h119v-86h-481v86h120v717h-143z" />
<glyph unicode="n" horiz-adv-x="1189" d="M45 803v65l295 80h90v-168q49 51 89 84t78 52.5t77 27.5t88 8q131 0 198.5 -65.5t67.5 -190.5v-610h121v-86h-481v86h120v571q0 92 -23.5 127t-86.5 35q-31 0 -54.5 -5t-50 -20.5t-60.5 -45t-83 -76.5v-586h119v-86h-481v86h120v717h-143z" />
<glyph unicode="o" horiz-adv-x="1034" d="M43 463q0 106 35 196.5t98.5 155t150.5 101t189 36.5t189.5 -36.5t151 -101t99 -155t35.5 -196.5t-35.5 -195.5t-99 -155t-151 -102.5t-189.5 -37t-189 37t-150.5 102.5t-98.5 154.5t-35 196zM303 463q0 -86 15.5 -156.5t44 -122t67.5 -80t86 -28.5t86 28.5t67.5 80 t44 122t15.5 156.5t-15.5 157.5t-44 123t-67.5 80t-86 28.5t-86 -28.5t-67.5 -80t-44 -123t-15.5 -157.5z" />
<glyph unicode="p" horiz-adv-x="1101" d="M37 813v57l295 78h90v-90q59 51 117.5 71.5t140.5 20.5q84 0 152.5 -31.5t116.5 -90t75 -141.5t27 -185q0 -117 -36 -214.5t-102.5 -167t-157.5 -108.5t-202 -39q-41 0 -65.5 4.5t-65.5 18.5v-408h135v-86h-496v86h121v1225h-145zM422 233q0 -55 4 -88.5t15.5 -52t32 -26 t52.5 -7.5q57 0 105.5 31t83.5 87t54 133t19 169q0 154 -57 249t-151 95q-37 0 -71 -14t-87 -55v-521z" />
<glyph unicode="q" horiz-adv-x="1067" d="M51 430q0 78 20.5 156t59.5 143q72 119 180.5 171t284.5 52q47 0 89 -3t83 -10t84 -18.5t92 -27.5v-1305h103v-86h-504v86h162v1254q-39 16 -61.5 20t-51.5 4q-131 0 -205 -106.5t-74 -296.5q0 -184 54.5 -280.5t158.5 -96.5h99v-70q-74 -25 -114 -34t-81 -9 q-82 0 -151.5 35t-119.5 95.5t-79 144.5t-29 182z" />
<glyph unicode="r" horiz-adv-x="772" d="M45 803v65l295 80h90v-157l47 51q55 61 95 85.5t83 24.5q49 0 70 -20l63 -55l-129 -179q-41 29 -62.5 41.5t-39.5 12.5q-29 0 -57.5 -22.5t-69.5 -76.5v-567h143v-86h-505v86h120v717h-143z" />
<glyph unicode="s" horiz-adv-x="862" d="M80 670q0 63 23.5 115.5t66.5 89t103.5 57t134.5 20.5q76 0 130 -16t99 -53l12 73h107l-51 -294h-105q6 16 9 34.5t3 32.5q0 27 -17 51.5t-46 43t-64.5 29.5t-74.5 11q-66 0 -107 -30.5t-41 -83.5q0 -29 8.5 -49.5t35 -40t75.5 -42t131 -55.5q76 -31 127 -61.5t83 -66.5 t45 -79t13 -98q0 -135 -85 -210t-240 -75q-174 0 -265 82v-73h-100v290h113v-55q0 -31 19.5 -59.5t53 -50t77.5 -34t91 -12.5q74 0 117 30t43 79q0 31 -11 55.5t-40 47t-77 45t-124 51.5q-150 57 -211 124.5t-61 176.5z" />
<glyph unicode="t" horiz-adv-x="612" d="M18 803v65l136 35v293h233v-289h211v-104h-211v-582v-57q0 -20 17.5 -35.5t39.5 -15.5q29 0 53.5 9t71.5 38l43 -74q-78 -63 -132 -88t-113 -25q-96 0 -154.5 57.5t-58.5 149.5v623h-136z" />
<glyph unicode="u" horiz-adv-x="1167" d="M18 803v65l295 80h90v-669q0 -88 29 -128t92 -40q31 0 56.5 7t53.5 23.5t58.5 46t71.5 72.5v543h-105v74l271 71h74v-823h143v-68l-295 -73h-88v172q-51 -53 -92 -89t-79 -56.5t-76 -29t-85 -8.5q-268 0 -268 265v565h-146z" />
<glyph unicode="v" horiz-adv-x="905" d="M0 842v86h397v-86h-88l207 -510l197 510h-123v86h315v-86h-90l-330 -869h-79l-351 869h-55z" />
<glyph unicode="w" horiz-adv-x="1445" d="M0 842v86h395v-86h-86l207 -506l150 383l-52 123h-104v86h428v-86h-88l211 -518l194 518h-122v86h313v-86h-90l-328 -869h-63l-248 615l-236 -615h-75l-351 869h-55z" />
<glyph unicode="x" horiz-adv-x="894" d="M0 0v86h88l258 336l-250 420h-76v86h431v-86h-84l133 -221l170 221h-84v86h295v-86h-88l-238 -312l264 -444h76v-86h-420v86h74l-148 244l-190 -244h106v-86h-317z" />
<glyph unicode="y" horiz-adv-x="907" d="M0 842v86h432v-86h-106l202 -496l193 496h-129v86h315v-86h-84l-342 -889q-39 -102 -90 -200.5t-100 -166.5q-14 -20 -36 -46.5t-52 -63.5l-135 141q43 27 72.5 47.5t54 40t45 42t43.5 50.5q20 27 35.5 49.5t28.5 49t27.5 58.5t31.5 75l-332 813h-74z" />
<glyph unicode="z" horiz-adv-x="960" d="M78 0v76l504 745h-387l-25 -159h-88l43 307h88l-6 -41h678v-62l-508 -762h416v148l88 -2v-250h-803z" />
<glyph unicode="{" horiz-adv-x="837" d="M90 475v74h76q76 0 117 61.5t41 177.5v463q0 272 266 273h168v-84h-80q-150 0 -150 -199v-467q0 -68 -9 -115t-30.5 -77.5t-58.5 -47t-92 -22.5q55 -8 92 -24.5t58.5 -46t30.5 -77t9 -114.5v-475q0 -98 39 -149.5t111 -51.5h80v-98h-168q-266 0 -266 274v486 q0 117 -41 178t-117 61h-76z" />
<glyph unicode="|" d="M178 -524v2048h156v-2048h-156z" />
<glyph unicode="}" horiz-adv-x="837" d="M84 1425v99h170q266 0 266 -273v-485q0 -117 41 -178.5t117 -61.5h76v-73h-76q-76 0 -117 -61.5t-41 -178.5v-463q0 -272 -266 -272h-168v84h80q150 0 149 198v467q0 68 9.5 115t31 77t58.5 46t92 24q-55 8 -92 24.5t-59.5 46.5t-32 76t-9.5 114v477q0 199 -147 198h-82z " />
<glyph unicode="~" horiz-adv-x="929" d="M55 1141q74 88 134.5 125t125.5 37q29 0 55.5 -5.5t41.5 -13.5l77 -49q55 -35 125 -35q25 0 42.5 2t34 10.5t33.5 23.5t44 40l57 -64q-74 -88 -133 -121.5t-139 -33.5q-49 0 -85 10t-77 37q-27 18 -43 28.5t-28.5 15.5t-23 6t-24.5 1q-41 0 -76.5 -17.5t-78.5 -60.5z" />
<glyph unicode="&#xa1;" horiz-adv-x="540" d="M135 -487l70 1114h125l78 -1114h-273zM156 928q0 47 33.5 80.5t82.5 33.5q47 0 82 -33.5t35 -80.5q0 -49 -35 -83t-82 -34q-49 0 -82.5 34t-33.5 83z" />
<glyph unicode="&#xa2;" horiz-adv-x="907" d="M41 442q0 109 38 202t103.5 161.5t156.5 107.5t196 39h28l27 154h94l-29 -160q35 -6 60.5 -12t49 -15.5t49.5 -22.5t63 -34l-123 -147q-18 23 -30.5 38t-26 26.5t-29 20.5t-37.5 21l-135 -702q51 -8 69.5 -10.5t34.5 -2.5q47 0 93 15.5t124 56.5l49 -90 q-55 -35 -99 -56.5t-84 -34.5t-80 -18.5t-87 -5.5h-21.5t-25.5 4l-29 -153h-94l35 170q-164 39 -252 155.5t-88 292.5zM289 467q0 -96 30.5 -178t88.5 -137l133 692q-252 -90 -252 -377z" />
<glyph unicode="&#xa3;" horiz-adv-x="1179" d="M-14 -463q0 59 63.5 108.5t171.5 75.5q12 27 22.5 51.5t19.5 51t19.5 59.5t22.5 78l62 227h-250l33 97l249 41l236 843q43 154 152.5 242t256.5 88q117 0 191 -44t74 -112q0 -33 -18.5 -60.5t-51.5 -43.5q-29 -16 -59 -16q-82 0 -107 96q-10 43 -22.5 61.5t-28.5 18.5 q-20 0 -45 -23.5t-50.5 -62.5t-48 -89t-36.5 -102l-217 -796h391l-41 -138h-383l-90 -299q-8 -25 -14.5 -43t-14.5 -34.5t-20.5 -35t-30.5 -44.5h10q63 0 115.5 -14.5t132.5 -53.5q76 -39 116 -51t74 -12q37 0 59.5 14t22.5 43t-18.5 58.5t-61.5 74.5l185 119 q49 -66 68.5 -109t19.5 -90q0 -109 -95.5 -171t-254.5 -62q-133 0 -222 55l-92 57q-29 16 -53.5 25.5t-71.5 15.5q-80 -84 -149.5 -119.5t-153.5 -35.5q-31 0 -49 16t-18 45z" />
<glyph unicode="&#xa4;" horiz-adv-x="1265" d="M37 803v61l141 47v121q0 92 34 170t94.5 134.5t144.5 87t184 30.5q84 0 150.5 -15.5t125.5 -49.5q78 68 152 96t174 28q41 0 75 -4t68.5 -14t72.5 -26.5t87 -43.5l-133 -168q-33 31 -56.5 51.5t-46 36t-49 31t-67.5 35.5q-59 -10 -92 -25.5t-50.5 -53.5t-21.5 -107.5 t-4 -188.5v-129h209l2 -104h-211v-717h170v-86h-531v86h121v717h-362v-717h121v-86h-482v86h121v717h-141zM418 907h362v170v66.5t4 38.5q0 10 13 35q-35 29 -60.5 49t-48 36.5t-47.5 31t-55 30.5q-53 -14 -86 -35.5t-51.5 -62.5t-24.5 -106.5t-6 -168.5v-84z" />
<glyph unicode="&#xa5;" horiz-adv-x="1259" d="M16 1352h510v-86h-118l288 -453l275 453h-137v86h409v-86h-117l-346 -561h299v-97h-303v-176h303v-102h-303v-244h127v-86h-504v86h127v244h-301v102h301v176h-301v97h258l-368 561h-97z" />
<glyph unicode="&#xa7;" horiz-adv-x="811" d="M6 -369l137 115q63 -82 109.5 -112.5t103.5 -30.5q229 0 230 336q0 96 -25.5 235t-79.5 340q-37 141 -62.5 242.5t-41 172t-21.5 116.5t-6 77q0 29 3 52.5t10.5 45t20.5 43t34 48.5l84 -17q-8 -29 -9 -44t-1 -36q0 -53 15 -145t40 -182l110 -408q37 -135 56.5 -267 t19.5 -237q0 -72 -7 -128t-24.5 -103t-44 -86t-65.5 -74q-31 -29 -58.5 -47t-57.5 -28.5t-64.5 -15.5t-79.5 -5q-61 0 -105.5 6t-80 21.5t-68.5 43t-72 72.5zM84 1026q0 238 103.5 364t299.5 126q59 0 103.5 -6.5t81.5 -23t69.5 -45t71.5 -71.5l-139 -115 q-33 63 -93.5 102.5t-123.5 39.5q-223 0 -224 -334q0 -96 25 -235.5t78 -340.5q37 -141 62.5 -241.5t41 -171t22.5 -116.5t7 -79q0 -29 -3 -52.5t-11.5 -45t-20.5 -43t-33 -47.5l-84 16q6 29 8.5 44.5t2.5 35.5q0 53 -15.5 144.5t-40.5 181.5l-110 409q-37 135 -57.5 267.5 t-20.5 236.5z" />
<glyph unicode="&#xa8;" horiz-adv-x="831" d="M117 1171q0 51 34.5 86t84.5 35q51 0 85.5 -35t34.5 -86q0 -49 -34.5 -83.5t-85.5 -34.5q-49 0 -84 34.5t-35 83.5zM475 1171q0 51 35 86t84 35q51 0 86 -35t35 -86q0 -49 -35 -83.5t-86 -34.5q-49 0 -84 34.5t-35 83.5z" />
<glyph unicode="&#xa9;" horiz-adv-x="2048" d="M184 498q0 174 65.5 326.5t179.5 266t267.5 180t327.5 66.5t327.5 -66.5t267.5 -180t179.5 -266t65.5 -326.5t-65.5 -328t-179.5 -267.5t-267.5 -180t-327.5 -66.5t-327.5 66.5t-267.5 180t-179.5 267.5t-65.5 328zM315 498q0 -147 55.5 -276.5t151.5 -226.5 t225.5 -152.5t276.5 -55.5t276.5 55.5t225.5 152.5t151.5 226t55.5 277q0 147 -55.5 276t-151.5 225.5t-225.5 151.5t-276.5 55t-276.5 -55t-225.5 -151.5t-151.5 -225.5t-55.5 -276zM535 487q0 100 41.5 192.5t112.5 162t163 110.5t195 41q53 0 112.5 -15t106.5 -40v57h100 v-295h-102v142q-68 37 -108 50t-89 13q-74 0 -138.5 -31.5t-110.5 -87t-72.5 -131t-26.5 -163.5q0 -92 27.5 -171t76.5 -135.5t118 -88t149 -31.5q47 0 83.5 13t94.5 52v145h102v-219q-55 -25 -98 -41t-78 -25t-68.5 -13.5t-70.5 -4.5q-115 0 -210 38t-164 106.5t-107.5 163 t-38.5 206.5z" />
<glyph unicode="&#xaa;" horiz-adv-x="1783" d="M43 799v61l139 49v127q0 123 40 201t134 139q129 82 285 82q84 0 157.5 -17.5t127.5 -49.5q80 66 154.5 94t172.5 28q47 0 88 -6t83 -20t86 -38t98 -58l-144 -177q-45 39 -76.5 67t-59.5 48.5t-57.5 38.5t-70.5 43q-55 -12 -90 -33.5t-53.5 -62.5t-25.5 -107.5t-7 -171.5 v-129h383l141 37h76v-858h125v-86h-485v86h120v717h-360v-717h119v-86h-479v86h118v717h-360v-717h121v-86h-482v86h121v713h-139zM422 907h360v168q0 47 4.5 75t16.5 62q-49 55 -96.5 90t-114.5 64q-57 -16 -91 -35.5t-51.5 -58.5t-22.5 -105.5t-5 -177.5v-82z" />
<glyph unicode="&#xab;" horiz-adv-x="1007" d="M4 459l561 393v-84l-243 -309l243 -309v-87zM444 459l562 393v-84l-244 -309l244 -309v-87z" />
<glyph unicode="&#xad;" horiz-adv-x="563" d="M66 354v230h426v-230h-426z" />
<glyph unicode="&#xae;" horiz-adv-x="2048" d="M184 469q0 174 65.5 327.5t179.5 267.5t267.5 180.5t327.5 66.5t327.5 -66.5t267.5 -180.5t179.5 -267.5t65.5 -327.5t-65.5 -326.5t-179.5 -266.5t-267.5 -180.5t-327.5 -66.5t-327.5 66.5t-267.5 180.5t-179.5 266.5t-65.5 326.5zM315 469q0 -147 55.5 -276.5 t151.5 -225.5t225.5 -151.5t276.5 -55.5t276.5 55.5t225.5 151.5t151.5 225.5t55.5 276.5t-55.5 276t-151.5 226.5t-225.5 153t-276.5 55.5t-276.5 -55.5t-225.5 -153t-151.5 -226.5t-55.5 -276zM608 0v76h144v803h-144v75h406q352 0 352 -254q0 -197 -223 -258l190 -325 q25 -41 68 -41h67v-76h-237l-240 422h-96v-346h141v-76h-428zM895 506h125q86 0 138 49t52 131q0 184 -213 184h-102v-364z" />
<glyph unicode="&#xb0;" horiz-adv-x="681" d="M88 1112q0 53 20.5 100.5t55.5 82t82 55t100 20.5q49 0 93 -19.5t76 -51t51.5 -76t19.5 -93.5q0 -53 -20.5 -100t-55.5 -82t-82 -55.5t-100 -20.5q-49 0 -93.5 18.5t-77 51.5t-51 77t-18.5 93zM209 1120q0 -53 37 -91t90 -38t91 38t38 91t-38 91t-91 38t-90 -38t-37 -91z " />
<glyph unicode="&#xb1;" horiz-adv-x="1126" d="M78 0v168h971v-168h-971zM78 532v168h401v320h168v-320h402v-168h-402v-319h-168v319h-401z" />
<glyph unicode="&#xb4;" horiz-adv-x="681" d="M125 1083l244 330h225l-326 -330h-143z" />
<glyph unicode="&#xb6;" horiz-adv-x="1318" d="M115 999q0 111 39 204t106.5 161t159.5 106.5t201 38.5h579l2 -112h-160v-1921h-129v1923h-122v-1923h-129v1026h-87q-90 0 -173 42t-146 110.5t-102 158.5t-39 186z" />
<glyph unicode="&#xba;" horiz-adv-x="1773" d="M39 803v63l147 47v117q0 199 126 311.5t347 112.5q84 0 140.5 -14.5t113.5 -48.5q76 66 150 94t168 28q29 0 52.5 -2t46 -6t48 -11t60.5 -19l100 34h82v-1423h121l-2 -86h-479v86h120v717h-360v-717h121v-86h-482v86h121v717h-362v-717h121v-86h-482v86h121v717h-139z M418 907h362v170q0 45 3 71t14 69q-35 33 -61.5 55t-50 38.5t-47.5 29t-50 24.5q-53 -14 -86 -35.5t-51.5 -61.5t-25.5 -105.5t-7 -166.5v-88zM1020 907h360v375q-27 23 -46 39t-38.5 29.5t-44 28t-59.5 32.5q-55 -14 -89 -33.5t-52.5 -59.5t-24.5 -106.5t-6 -173.5v-131z " />
<glyph unicode="&#xbb;" horiz-adv-x="1024" d="M0 63v87l242 309l-242 309v84l561 -393zM440 63v87l244 309l-244 309v84l561 -393z" />
<glyph unicode="&#xbf;" horiz-adv-x="837" d="M117 117q0 147 75.5 236t204.5 89h97l36 187h88v-391h-339q-4 -25 -5.5 -37.5t-1.5 -28.5q0 -98 46.5 -180t125.5 -127q31 -16 54.5 -27.5t51.5 -21t64.5 -18.5t94.5 -21l-91 -262q-51 12 -87.5 24t-67.5 27.5t-58.5 35t-60.5 46.5q-106 90 -166.5 214t-60.5 255z M461 924q-2 49 32.5 84.5t84.5 35.5q49 0 82.5 -34.5t33.5 -81.5q0 -49 -33.5 -84t-80.5 -35q-49 0 -84 34t-35 81z" />
<glyph unicode="&#xc0;" horiz-adv-x="1376" d="M0 0v86h127l528 1309h125l508 -1309h86v-86h-500v86h144l-127 332h-498l-133 -332h164v-86h-424zM346 1735h225l244 -330h-145zM442 543h402l-195 512z" />
<glyph unicode="&#xc1;" horiz-adv-x="1376" d="M0 0v86h127l528 1309h125l508 -1309h86v-86h-500v86h144l-127 332h-498l-133 -332h164v-86h-424zM442 543h402l-195 512zM465 1409l244 330h223l-324 -330h-143z" />
<glyph unicode="&#xc2;" horiz-adv-x="1376" d="M0 0v86h127l528 1309h125l508 -1309h86v-86h-500v86h144l-127 332h-498l-133 -332h164v-86h-424zM434 1436l230 338h122l222 -338h-107l-176 180l-174 -180h-117zM442 543h402l-195 512z" />
<glyph unicode="&#xc3;" horiz-adv-x="1376" d="M0 0v86h127l528 1309h125l508 -1309h86v-86h-500v86h144l-127 332h-498l-133 -332h164v-86h-424zM348 1579q72 86 132.5 123t125.5 37q29 0 55.5 -5t40.5 -14l78 -49q55 -35 127 -35q25 0 42.5 2t32.5 10.5t32.5 24t44.5 41.5l59 -63q-37 -45 -69.5 -75t-64.5 -48.5 t-66.5 -26.5t-73.5 -8q-49 0 -85 10t-77 37q-27 18 -42 28.5t-27.5 15.5t-24 6t-25.5 1q-41 0 -76.5 -17.5t-78.5 -60.5zM442 543h402l-195 512z" />
<glyph unicode="&#xc4;" horiz-adv-x="1376" d="M0 0v86h127l528 1309h125l508 -1309h86v-86h-500v86h144l-127 332h-498l-133 -332h164v-86h-424zM416 1487q0 49 34.5 85t86.5 36q49 0 83.5 -36t34.5 -85q0 -51 -34.5 -86t-83.5 -35q-51 0 -86 35t-35 86zM442 543h402l-195 512zM774 1487q0 49 35 85t86 36q49 0 84 -36 t35 -85q0 -51 -35 -86t-84 -35q-51 0 -86 35t-35 86z" />
<glyph unicode="&#xc5;" horiz-adv-x="1376" d="M0 0v86h127l528 1309h125l508 -1309h86v-86h-500v86h144l-127 332h-498l-133 -332h164v-86h-424zM442 543h402l-195 512zM537 1642q0 76 53 128.5t127 52.5q76 0 128 -52.5t52 -128.5q0 -74 -52 -127t-128 -53q-37 0 -70 14.5t-57.5 39t-38.5 57.5t-14 69zM623 1642 q0 -39 27.5 -66.5t66.5 -27.5q41 0 67.5 28t26.5 66q0 41 -26.5 69t-67.5 28q-39 0 -66.5 -28t-27.5 -69z" />
<glyph unicode="&#xc6;" horiz-adv-x="1806" d="M0 0v86h121l624 1176h-163v90h981v49h112v-328h-112v158h-428v-488h333v142h111v-404h-111v142h-333v-502h448l2 147h109v-268h-977v86h153v326h-446l-172 -326h158v-86h-410zM492 539h378v716z" />
<glyph unicode="&#xc7;" horiz-adv-x="1372" d="M84 668q0 154 54.5 282.5t151.5 222t230 145.5t293 52q49 0 90 -3t81 -11t80 -21.5t87 -31.5v83l111 3l2 -347l-111 -2l-2 113q-47 31 -82 51.5t-66.5 32.5t-63.5 16t-71 4q-111 0 -202 -40.5t-155.5 -116.5t-100 -180.5t-35.5 -233.5q0 -127 39 -235.5t107.5 -187.5 t161.5 -124t204 -45q35 0 63.5 3t59 12.5t65.5 25t80 39.5v156h113l2 -271q-63 -23 -116.5 -39t-101.5 -26t-94.5 -14.5t-91.5 -4.5h-24l-90 -122q72 -8 112.5 -49.5t40.5 -106.5q0 -41 -20.5 -77t-55 -63.5t-82 -44t-98.5 -16.5q-45 0 -81 8.5t-91 30.5l68 105 q33 -35 53 -46.5t45 -11.5q43 0 72.5 31t29.5 76q0 117 -151 116h-10l135 179q-78 12 -134.5 25.5t-102.5 32.5t-88 48t-87 70q-223 199 -223 508z" />
<glyph unicode="&#xc8;" horiz-adv-x="1189" d="M102 0v86h156v1180h-156v86h844v57h111v-326h-109v148h-426v-483h328v139l111 2v-404l-111 -2v144h-328v-506h445v151h110v-272h-975zM176 1726h225l244 -329h-145z" />
<glyph unicode="&#xc9;" horiz-adv-x="1189" d="M102 0v86h156v1180h-156v86h844v57h111v-326h-109v148h-426v-483h328v139l111 2v-404l-111 -2v144h-328v-506h445v151h110v-272h-975zM391 1405l244 330h225l-325 -330h-144z" />
<glyph unicode="&#xca;" horiz-adv-x="1189" d="M102 0v86h156v1180h-156v86h844v57h111v-326h-109v148h-426v-483h328v139l111 2v-404l-111 -2v144h-328v-506h445v151h110v-272h-975zM289 1485l231 338h123l219 -338h-106l-174 180l-176 -180h-117z" />
<glyph unicode="&#xcb;" horiz-adv-x="1189" d="M102 0v86h156v1180h-156v86h844v57h111v-326h-109v148h-426v-483h328v139l111 2v-404l-111 -2v144h-328v-506h445v151h110v-272h-975zM254 1589q0 51 36 86t85 35t85 -35t36 -86q0 -49 -36 -84t-85 -35t-85 35t-36 84zM629 1589q0 51 35.5 86t85.5 35q51 0 85.5 -35 t34.5 -86q0 -49 -34.5 -84t-85.5 -35q-49 0 -85 35t-36 84z" />
<glyph unicode="&#xcc;" horiz-adv-x="761" d="M53 1735h226l243 -330h-145zM94 0v86h156v1180h-156v86h574v-86h-154v-1180h154v-86h-574z" />
<glyph unicode="&#xcd;" horiz-adv-x="761" d="M94 0v86h156v1180h-156v86h574v-86h-154v-1180h154v-86h-574zM229 1405l244 330h225l-325 -330h-144z" />
<glyph unicode="&#xce;" horiz-adv-x="761" d="M94 0v86h156v1180h-156v86h574v-86h-154v-1180h154v-86h-574zM96 1466l230 338h125l219 -338h-107l-176 181l-174 -181h-117z" />
<glyph unicode="&#xcf;" horiz-adv-x="761" d="M94 0v86h156v1180h-156v86h574v-86h-154v-1180h154v-86h-574zM94 1495q0 49 35 85t86 36q49 0 84 -36t35 -85q0 -51 -35 -86t-84 -35q-51 0 -86 35t-35 86zM453 1495q0 49 34.5 85t85.5 36q49 0 85 -36t36 -85q0 -51 -35.5 -86t-85.5 -35q-51 0 -85.5 35t-34.5 86z" />
<glyph unicode="&#xd1;" horiz-adv-x="1509" d="M68 1266v86h407l664 -944v858h-162v86h463v-86h-172v-1289h-144l-712 1004v-895h161v-86h-462v86h170v1075l-66 105h-147zM352 1522q72 88 133.5 124.5t126.5 36.5q29 0 55.5 -5t41.5 -13l77 -49q29 -18 60 -26.5t65 -8.5q25 0 42.5 2t34 10.5t33.5 23.5t42 40l59 -64 q-74 -88 -133 -121.5t-141 -33.5q-47 0 -83 10t-77 37q-27 18 -43 28.5t-28.5 15.5t-24 6t-25.5 1q-41 0 -75.5 -17.5t-79.5 -60.5z" />
<glyph unicode="&#xd2;" horiz-adv-x="1521" d="M86 676q0 147 52 274t144.5 222.5t215.5 149.5t264 54t265 -54t215 -149.5t144.5 -222.5t53.5 -274t-53.5 -275.5t-144.5 -223.5t-215 -149.5t-265 -54.5t-264 54.5t-215.5 149.5t-144.5 223t-52 276zM326 1733h225l244 -330h-144zM375 676q0 -117 31.5 -223.5t85 -186.5 t123 -128t147.5 -48t148.5 48t123.5 128t85 186.5t32 223.5t-32 222.5t-85 185t-123.5 128t-148.5 48.5t-147.5 -48.5t-123 -128t-85 -185t-31.5 -222.5z" />
<glyph unicode="&#xd3;" horiz-adv-x="1521" d="M86 676q0 147 52 274t144.5 222.5t215.5 149.5t264 54t265 -54t215 -149.5t144.5 -222.5t53.5 -274t-53.5 -275.5t-144.5 -223.5t-215 -149.5t-265 -54.5t-264 54.5t-215.5 149.5t-144.5 223t-52 276zM375 676q0 -117 31.5 -223.5t85 -186.5t123 -128t147.5 -48t148.5 48 t123.5 128t85 186.5t32 223.5t-32 222.5t-85 185t-123.5 128t-148.5 48.5t-147.5 -48.5t-123 -128t-85 -185t-31.5 -222.5zM518 1407l244 330h225l-325 -330h-144z" />
<glyph unicode="&#xd4;" horiz-adv-x="1521" d="M86 676q0 147 52 274t144.5 222.5t215.5 149.5t264 54t265 -54t215 -149.5t144.5 -222.5t53.5 -274t-53.5 -275.5t-144.5 -223.5t-215 -149.5t-265 -54.5t-264 54.5t-215.5 149.5t-144.5 223t-52 276zM375 676q0 -117 31.5 -223.5t85 -186.5t123 -128t147.5 -48t148.5 48 t123.5 128t85 186.5t32 223.5t-32 222.5t-85 185t-123.5 128t-148.5 48.5t-147.5 -48.5t-123 -128t-85 -185t-31.5 -222.5zM465 1468l231 338h123l219 -338h-106l-174 181l-176 -181h-117z" />
<glyph unicode="&#xd5;" horiz-adv-x="1521" d="M86 676q0 147 52 274t144.5 222.5t215.5 149.5t264 54t265 -54t215 -149.5t144.5 -222.5t53.5 -274t-53.5 -275.5t-144.5 -223.5t-215 -149.5t-265 -54.5t-264 54.5t-215.5 149.5t-144.5 223t-52 276zM375 676q0 -117 31.5 -223.5t85 -186.5t123 -128t147.5 -48t148.5 48 t123.5 128t85 186.5t32 223.5t-32 222.5t-85 185t-123.5 128t-148.5 48.5t-147.5 -48.5t-123 -128t-85 -185t-31.5 -222.5zM387 1540q72 88 133.5 125t126.5 37q29 0 55.5 -5t40.5 -14l78 -49q55 -35 125 -35q25 0 42.5 2.5t33.5 10.5t33.5 23.5t44.5 39.5l57 -63 q-74 -88 -133 -122t-139 -34q-49 0 -85 10.5t-77 36.5q-27 18 -43 28.5t-28.5 15.5t-23 6t-24.5 1q-41 0 -76.5 -17t-78.5 -60z" />
<glyph unicode="&#xd6;" horiz-adv-x="1521" d="M86 676q0 147 52 274t144.5 222.5t215.5 149.5t264 54t265 -54t215 -149.5t144.5 -222.5t53.5 -274t-53.5 -275.5t-144.5 -223.5t-215 -149.5t-265 -54.5t-264 54.5t-215.5 149.5t-144.5 223t-52 276zM348 1540q0 51 36 86t85 35q51 0 86 -35t35 -86q0 -49 -35 -84 t-86 -35q-49 0 -85 35t-36 84zM375 676q0 -117 31.5 -223.5t85 -186.5t123 -128t147.5 -48t148.5 48t123.5 128t85 186.5t32 223.5t-32 222.5t-85 185t-123.5 128t-148.5 48.5t-147.5 -48.5t-123 -128t-85 -185t-31.5 -222.5zM930 1540q0 51 34.5 86t86.5 35q49 0 83.5 -35 t34.5 -86q0 -49 -34.5 -84t-83.5 -35q-51 0 -86 35t-35 84z" />
<glyph unicode="&#xd8;" horiz-adv-x="1529" d="M72 -49l202 233q-190 190 -190 484q0 147 52 275t144.5 222.5t217.5 147.5t270 53q59 0 109.5 -7t97.5 -24.5t96 -45t109 -68.5l202 239l76 -67l-209 -236q193 -199 193 -487q0 -145 -53.5 -271.5t-145.5 -221.5t-215 -149.5t-262 -54.5q-231 0 -422 148l-199 -236z M371 670q0 -39 2 -71t9 -65.5t19.5 -73.5t30.5 -93l608 698q-115 184 -276 184q-78 0 -148.5 -48t-125 -128t-87 -184t-32.5 -219zM481 274q135 -186 283 -186q76 0 145.5 48t123.5 128t86 184.5t32 219.5q0 41 -3 74.5t-9 67.5t-18.5 73t-30.5 92z" />
<glyph unicode="&#xd9;" horiz-adv-x="1597" d="M102 1266v86h574v-86h-154v-764q0 -78 7.5 -135.5t24.5 -99.5t44 -71.5t66 -50.5q78 -39 170 -39q186 0 287.5 103.5t101.5 292.5v762h-170v88h475v-86h-172v-770q0 -174 -61.5 -286t-192.5 -173q-139 -63 -297 -64q-125 0 -225.5 33t-172 93.5t-110.5 146.5t-39 192v828 h-156zM416 1726h225l242 -329h-144z" />
<glyph unicode="&#xda;" horiz-adv-x="1597" d="M102 1266v86h574v-86h-154v-764q0 -78 7.5 -135.5t24.5 -99.5t44 -71.5t66 -50.5q78 -39 170 -39q186 0 287.5 103.5t101.5 292.5v762h-170v88h475v-86h-172v-770q0 -174 -61.5 -286t-192.5 -173q-139 -63 -297 -64q-125 0 -225.5 33t-172 93.5t-110.5 146.5t-39 192v828 h-156zM653 1393l244 329h225l-325 -329h-144z" />
<glyph unicode="&#xdb;" horiz-adv-x="1597" d="M102 1266v86h574v-86h-154v-764q0 -78 7.5 -135.5t24.5 -99.5t44 -71.5t66 -50.5q78 -39 170 -39q186 0 287.5 103.5t101.5 292.5v762h-170v88h475v-86h-172v-770q0 -174 -61.5 -286t-192.5 -173q-139 -63 -297 -64q-125 0 -225.5 33t-172 93.5t-110.5 146.5t-39 192v828 h-156zM567 1489l232 338h123l219 -338h-107l-174 180l-176 -180h-117z" />
<glyph unicode="&#xdc;" horiz-adv-x="1597" d="M102 1266v86h574v-86h-154v-764q0 -78 7.5 -135.5t24.5 -99.5t44 -71.5t66 -50.5q78 -39 170 -39q186 0 287.5 103.5t101.5 292.5v762h-170v88h475v-86h-172v-770q0 -174 -61.5 -286t-192.5 -173q-139 -63 -297 -64q-125 0 -225.5 33t-172 93.5t-110.5 146.5t-39 192v828 h-156zM424 1542q0 51 36 86t85 35t85 -35t36 -86q0 -49 -36 -84t-85 -35t-85 35t-36 84zM961 1542q0 51 34.5 86t85.5 35q49 0 84 -35t35 -86q0 -49 -35 -84t-84 -35q-51 0 -85.5 35t-34.5 84z" />
<glyph unicode="&#xdf;" horiz-adv-x="1239" d="M45 803v65l143 45v166q0 94 33 174t91.5 137.5t139 90t177.5 32.5q88 0 164.5 -23.5t134 -63.5t89.5 -95t32 -119q0 -59 -30 -104t-95 -92l-121 -84q-88 -59 -88 -135q0 -59 45 -103.5t151 -91.5q74 -35 124 -66.5t81 -68.5t44.5 -81t13.5 -99q0 -145 -108 -229.5 t-290 -84.5q-90 0 -153.5 21.5t-141.5 79.5l109 166q84 -145 217 -146q66 0 112 34t46 85q0 39 -21.5 64.5t-77.5 56.5l-100 55q-70 39 -116 72t-73.5 67.5t-39 74.5t-11.5 89q0 41 8.5 79t29 76t51 79t77.5 90q35 37 56.5 62.5t34 47t16.5 40t4 40.5q0 63 -45 112.5 t-156 96.5q-53 -16 -87 -37.5t-52.5 -62.5t-25.5 -106.5t-7 -166.5v-1042h-362v86h120v717h-143z" />
<glyph unicode="&#xe0;" horiz-adv-x="935" d="M35 211q0 92 51 153.5t147 84.5l299 67v217q0 78 -22.5 109.5t-77.5 31.5q-25 0 -45 -5t-57 -21v-103l-234 -57q-10 18 -13 29.5t-3 27.5q0 94 97 150.5t257 56.5q166 0 252 -57t86 -168v-621h123v-67l-137 -43q-45 -14 -96 -14q-109 0 -123 112q-51 -66 -106.5 -93.5 t-139.5 -27.5q-119 0 -188.5 63.5t-69.5 174.5zM135 1413h223l244 -330h-143zM268 233q0 -59 29 -96t76 -37q37 0 72.5 19.5t86.5 66.5v226l-264 -62v-117z" />
<glyph unicode="&#xe1;" horiz-adv-x="935" d="M35 211q0 92 51 153.5t147 84.5l299 67v217q0 78 -22.5 109.5t-77.5 31.5q-25 0 -45 -5t-57 -21v-103l-234 -57q-10 18 -13 29.5t-3 27.5q0 94 97 150.5t257 56.5q166 0 252 -57t86 -168v-621h123v-67l-137 -43q-45 -14 -96 -14q-109 0 -123 112q-51 -66 -106.5 -93.5 t-139.5 -27.5q-119 0 -188.5 63.5t-69.5 174.5zM260 1083l244 330h223l-324 -330h-143zM268 233q0 -59 29 -96t76 -37q37 0 72.5 19.5t86.5 66.5v226l-264 -62v-117z" />
<glyph unicode="&#xe2;" horiz-adv-x="935" d="M35 211q0 92 51 153.5t147 84.5l299 67v217q0 78 -22.5 109.5t-77.5 31.5q-25 0 -45 -5t-57 -21v-103l-234 -57q-10 18 -13 29.5t-3 27.5q0 94 97 150.5t257 56.5q166 0 252 -57t86 -168v-621h123v-67l-137 -43q-45 -14 -96 -14q-109 0 -123 112q-51 -66 -106.5 -93.5 t-139.5 -27.5q-119 0 -188.5 63.5t-69.5 174.5zM172 1083l229 338h123l221 -338h-106l-176 181l-174 -181h-117zM268 233q0 -59 29 -96t76 -37q37 0 72.5 19.5t86.5 66.5v226l-264 -62v-117z" />
<glyph unicode="&#xe3;" horiz-adv-x="935" d="M35 211q0 92 51 153.5t147 84.5l299 67v217q0 78 -22.5 109.5t-77.5 31.5q-25 0 -45 -5t-57 -21v-103l-234 -57q-10 18 -13 29.5t-3 27.5q0 94 97 150.5t257 56.5q166 0 252 -57t86 -168v-621h123v-67l-137 -43q-45 -14 -96 -14q-109 0 -123 112q-51 -66 -106.5 -93.5 t-139.5 -27.5q-119 0 -188.5 63.5t-69.5 174.5zM68 1141q72 88 132 125t128 37q27 0 54.5 -5.5t39.5 -13.5l78 -49q55 -35 127 -35q25 0 42 2t32.5 10.5t33 23.5t43.5 40l60 -64q-74 -88 -133.5 -121.5t-141.5 -33.5q-49 0 -85 10t-77 37q-27 18 -42 28.5t-27.5 15.5 t-23.5 6t-25 1q-41 0 -76 -17.5t-80 -60.5zM268 233q0 -59 29 -96t76 -37q37 0 72.5 19.5t86.5 66.5v226l-264 -62v-117z" />
<glyph unicode="&#xe4;" horiz-adv-x="935" d="M35 211q0 92 51 153.5t147 84.5l299 67v217q0 78 -22.5 109.5t-77.5 31.5q-25 0 -45 -5t-57 -21v-103l-234 -57q-10 18 -13 29.5t-3 27.5q0 94 97 150.5t257 56.5q166 0 252 -57t86 -168v-621h123v-67l-137 -43q-45 -14 -96 -14q-109 0 -123 112q-51 -66 -106.5 -93.5 t-139.5 -27.5q-119 0 -188.5 63.5t-69.5 174.5zM145 1174q0 51 36 85.5t85 34.5q51 0 86 -34.5t35 -85.5q0 -49 -35 -85t-86 -36q-49 0 -85 35.5t-36 85.5zM268 233q0 -59 29 -96t76 -37q37 0 72.5 19.5t86.5 66.5v226l-264 -62v-117zM504 1174q0 51 35.5 85.5t85.5 34.5 q51 0 85.5 -34.5t34.5 -85.5q0 -49 -34.5 -85t-85.5 -36q-49 0 -85 35.5t-36 85.5z" />
<glyph unicode="&#xe5;" horiz-adv-x="935" d="M35 211q0 92 51 153.5t147 84.5l299 67v217q0 78 -22.5 109.5t-77.5 31.5q-25 0 -45 -5t-57 -21v-103l-234 -57q-10 18 -13 29.5t-3 27.5q0 94 97 150.5t257 56.5q166 0 252 -57t86 -168v-621h123v-67l-137 -43q-45 -14 -96 -14q-109 0 -123 112q-51 -66 -106.5 -93.5 t-139.5 -27.5q-119 0 -188.5 63.5t-69.5 174.5zM264 1202q0 76 53.5 128t126.5 52q76 0 128.5 -52t52.5 -128q0 -74 -52.5 -127t-128.5 -53q-37 0 -69.5 14.5t-57 39t-39 57t-14.5 69.5zM268 233q0 -59 29 -96t76 -37q37 0 72.5 19.5t86.5 66.5v226l-264 -62v-117zM350 1202 q0 -39 28 -66.5t66 -27.5q41 0 69 27.5t28 66.5q0 41 -28 67.5t-69 26.5q-39 0 -66.5 -26.5t-27.5 -67.5z" />
<glyph unicode="&#xe6;" horiz-adv-x="1437" d="M43 211q0 90 55.5 155.5t143.5 79.5l299 50v235q0 78 -22.5 109.5t-76.5 31.5q-25 0 -46 -5t-58 -21v-103l-234 -57q-10 20 -15 32.5t-5 29.5q0 92 101.5 147t267.5 55q94 0 153.5 -17.5t112.5 -60.5q76 41 133 57.5t129 16.5q90 0 164 -25.5t126 -71.5t80.5 -110.5 t28.5 -144.5v-59l-618 -105q14 -156 97 -247t210 -91q66 0 126 23.5t146 85.5l45 -92q-72 -43 -123 -70t-94 -41t-86 -19.5t-98 -5.5q-139 0 -226 39t-151 129q-76 -92 -143.5 -130t-155.5 -38q-123 0 -194.5 63.5t-71.5 174.5zM276 231q0 -53 31 -92t76 -39q39 0 77 22.5 t103 86.5q-23 61 -22 129v53l-265 -45v-115zM760 535l366 65v59q0 96 -36.5 147.5t-106.5 51.5q-98 0 -158.5 -88t-64.5 -235z" />
<glyph unicode="&#xe7;" horiz-adv-x="884" d="M43 446q0 111 38 203t105.5 158.5t160.5 103.5t204 37q47 0 85 -4t72.5 -15t70.5 -29.5t79 -45.5l-131 -129q-29 27 -48.5 43t-38.5 30.5t-42 28t-57 31.5q-242 -106 -242 -364q0 -80 23.5 -154t63.5 -129t93 -88t111 -33q25 0 48.5 4t48 13.5t53 24.5t67.5 38l53 -90 q-55 -27 -93 -44.5t-69.5 -27.5t-62.5 -17t-74 -16l-92 -106q72 -2 120 -43t48 -102q0 -92 -72.5 -148.5t-189.5 -56.5q-23 0 -39.5 1t-33.5 4t-38.5 8t-52.5 13l59 113q4 -6 8.5 -9t6.5 -7q29 -29 47 -37t47 -8q39 0 67.5 32.5t28.5 77.5t-46 77t-107 32h-19l150 159 q-195 29 -302.5 153t-107.5 318z" />
<glyph unicode="&#xe8;" horiz-adv-x="944" d="M43 459q0 111 34 202t95 155.5t147.5 100t192.5 35.5q88 0 162 -26.5t125 -75.5t79.5 -117.5t28.5 -152.5v-78h-612q0 -193 80 -302.5t219 -109.5q29 0 53.5 4t53 16.5t68.5 34t99 56.5l47 -90q-76 -43 -130 -70t-99 -42t-89 -20.5t-97 -5.5q-102 0 -187.5 35 t-144.5 98.5t-92 153.5t-33 199zM156 1413h225l244 -330h-144zM297 606h356v49q0 92 -40 150.5t-103 58.5q-82 0 -140.5 -70.5t-72.5 -187.5z" />
<glyph unicode="&#xe9;" horiz-adv-x="944" d="M43 459q0 111 34 202t95 155.5t147.5 100t192.5 35.5q88 0 162 -26.5t125 -75.5t79.5 -117.5t28.5 -152.5v-78h-612q0 -193 80 -302.5t219 -109.5q29 0 53.5 4t53 16.5t68.5 34t99 56.5l47 -90q-76 -43 -130 -70t-99 -42t-89 -20.5t-97 -5.5q-102 0 -187.5 35 t-144.5 98.5t-92 153.5t-33 199zM297 606h356v49q0 92 -40 150.5t-103 58.5q-82 0 -140.5 -70.5t-72.5 -187.5zM319 1083l244 330h223l-323 -330h-144z" />
<glyph unicode="&#xea;" horiz-adv-x="944" d="M43 459q0 111 34 202t95 155.5t147.5 100t192.5 35.5q88 0 162 -26.5t125 -75.5t79.5 -117.5t28.5 -152.5v-78h-612q0 -193 80 -302.5t219 -109.5q29 0 53.5 4t53 16.5t68.5 34t99 56.5l47 -90q-76 -43 -130 -70t-99 -42t-89 -20.5t-97 -5.5q-102 0 -187.5 35 t-144.5 98.5t-92 153.5t-33 199zM240 1083l229 338h125l219 -338h-106l-177 181l-174 -181h-116zM297 606h356v49q0 92 -40 150.5t-103 58.5q-82 0 -140.5 -70.5t-72.5 -187.5z" />
<glyph unicode="&#xeb;" horiz-adv-x="944" d="M43 459q0 111 34 202t95 155.5t147.5 100t192.5 35.5q88 0 162 -26.5t125 -75.5t79.5 -117.5t28.5 -152.5v-78h-612q0 -193 80 -302.5t219 -109.5q29 0 53.5 4t53 16.5t68.5 34t99 56.5l47 -90q-76 -43 -130 -70t-99 -42t-89 -20.5t-97 -5.5q-102 0 -187.5 35 t-144.5 98.5t-92 153.5t-33 199zM203 1171q0 51 35.5 86t85.5 35q51 0 85.5 -35t34.5 -86q0 -49 -34.5 -83.5t-85.5 -34.5q-49 0 -85 34.5t-36 83.5zM297 606h356v49q0 92 -40 150.5t-103 58.5q-82 0 -140.5 -70.5t-72.5 -187.5zM561 1171q0 51 36 86t85 35q51 0 86 -35 t35 -86q0 -49 -35 -83.5t-86 -34.5q-49 0 -85 34.5t-36 83.5z" />
<glyph unicode="&#xec;" horiz-adv-x="577" d="M12 1413h226l243 -330h-145zM45 803v65l295 80h80v-862h121v-86h-482v86h121v717h-135z" />
<glyph unicode="&#xed;" horiz-adv-x="577" d="M45 803v65l295 80h80v-862h121v-86h-482v86h121v717h-135zM133 1083l244 330h223l-324 -330h-143z" />
<glyph unicode="&#xee;" horiz-adv-x="577" d="M18 1083l230 338h123l221 -338h-107l-176 181l-174 -181h-117zM45 803v65l295 80h80v-862h121v-86h-482v86h121v717h-135z" />
<glyph unicode="&#xef;" horiz-adv-x="577" d="M12 1171q0 51 35 86t86 35q49 0 85 -35t36 -86q0 -49 -36 -83.5t-85 -34.5q-51 0 -86 34.5t-35 83.5zM45 803v65l295 80h80v-862h121v-86h-482v86h121v717h-135zM328 1171q0 51 34.5 86t86.5 35q49 0 83.5 -35t34.5 -86q0 -49 -34.5 -83.5t-83.5 -34.5q-51 0 -86 34.5 t-35 83.5z" />
<glyph unicode="&#xf1;" horiz-adv-x="1189" d="M45 803v65l295 80h90v-168q49 51 89 84t78 52.5t77 27.5t88 8q131 0 198.5 -65.5t67.5 -190.5v-610h121v-86h-481v86h120v571q0 92 -23.5 127t-86.5 35q-31 0 -54.5 -5t-50 -20.5t-60.5 -45t-83 -76.5v-586h119v-86h-481v86h120v717h-143zM199 1141q74 88 134 125t126 37 q29 0 55.5 -5.5t40.5 -13.5l78 -49q55 -35 125 -35q25 0 42 2t33.5 10.5t34 23.5t43.5 40l58 -64q-74 -88 -133.5 -121.5t-139.5 -33.5q-49 0 -85 10t-76 37q-27 18 -43.5 28.5t-28.5 15.5t-22.5 6t-24.5 1q-41 0 -77 -17.5t-79 -60.5z" />
<glyph unicode="&#xf2;" horiz-adv-x="1034" d="M43 463q0 106 35 196.5t98.5 155t150.5 101t189 36.5t189.5 -36.5t151 -101t99 -155t35.5 -196.5t-35.5 -195.5t-99 -155t-151 -102.5t-189.5 -37t-189 37t-150.5 102.5t-98.5 154.5t-35 196zM207 1413h225l244 -330h-144zM303 463q0 -86 15.5 -156.5t44 -122t67.5 -80 t86 -28.5t86 28.5t67.5 80t44 122t15.5 156.5t-15.5 157.5t-44 123t-67.5 80t-86 28.5t-86 -28.5t-67.5 -80t-44 -123t-15.5 -157.5z" />
<glyph unicode="&#xf3;" horiz-adv-x="1034" d="M43 463q0 106 35 196.5t98.5 155t150.5 101t189 36.5t189.5 -36.5t151 -101t99 -155t35.5 -196.5t-35.5 -195.5t-99 -155t-151 -102.5t-189.5 -37t-189 37t-150.5 102.5t-98.5 154.5t-35 196zM303 463q0 -86 15.5 -156.5t44 -122t67.5 -80t86 -28.5t86 28.5t67.5 80 t44 122t15.5 156.5t-15.5 157.5t-44 123t-67.5 80t-86 28.5t-86 -28.5t-67.5 -80t-44 -123t-15.5 -157.5zM309 1083l244 330h225l-325 -330h-144z" />
<glyph unicode="&#xf4;" horiz-adv-x="1034" d="M43 463q0 106 35 196.5t98.5 155t150.5 101t189 36.5t189.5 -36.5t151 -101t99 -155t35.5 -196.5t-35.5 -195.5t-99 -155t-151 -102.5t-189.5 -37t-189 37t-150.5 102.5t-98.5 154.5t-35 196zM231 1083l232 338h123l219 -338h-107l-174 181l-176 -181h-117zM303 463 q0 -86 15.5 -156.5t44 -122t67.5 -80t86 -28.5t86 28.5t67.5 80t44 122t15.5 156.5t-15.5 157.5t-44 123t-67.5 80t-86 28.5t-86 -28.5t-67.5 -80t-44 -123t-15.5 -157.5z" />
<glyph unicode="&#xf5;" horiz-adv-x="1034" d="M43 463q0 106 35 196.5t98.5 155t150.5 101t189 36.5t189.5 -36.5t151 -101t99 -155t35.5 -196.5t-35.5 -195.5t-99 -155t-151 -102.5t-189.5 -37t-189 37t-150.5 102.5t-98.5 154.5t-35 196zM131 1141q72 88 133.5 125t126.5 37q29 0 55.5 -5.5t40.5 -13.5l78 -49 q29 -18 59.5 -26.5t65.5 -8.5q25 0 42.5 2t33.5 10.5t33.5 23.5t44.5 40l57 -64q-74 -88 -133 -121.5t-141 -33.5q-47 0 -83 10t-77 37q-27 18 -43 28.5t-28.5 15.5t-23 6t-24.5 1q-41 0 -76.5 -17.5t-78.5 -60.5zM303 463q0 -86 15.5 -156.5t44 -122t67.5 -80t86 -28.5 t86 28.5t67.5 80t44 122t15.5 156.5t-15.5 157.5t-44 123t-67.5 80t-86 28.5t-86 -28.5t-67.5 -80t-44 -123t-15.5 -157.5z" />
<glyph unicode="&#xf6;" horiz-adv-x="1034" d="M43 463q0 106 35 196.5t98.5 155t150.5 101t189 36.5t189.5 -36.5t151 -101t99 -155t35.5 -196.5t-35.5 -195.5t-99 -155t-151 -102.5t-189.5 -37t-189 37t-150.5 102.5t-98.5 154.5t-35 196zM195 1171q0 49 34.5 84t85.5 35q49 0 84 -35t35 -84q0 -51 -34.5 -85.5 t-84.5 -34.5q-51 0 -85.5 34.5t-34.5 85.5zM303 463q0 -86 15.5 -156.5t44 -122t67.5 -80t86 -28.5t86 28.5t67.5 80t44 122t15.5 156.5t-15.5 157.5t-44 123t-67.5 80t-86 28.5t-86 -28.5t-67.5 -80t-44 -123t-15.5 -157.5zM553 1171q0 49 35 84t86 35q49 0 84 -35t35 -84 q0 -51 -35 -85.5t-84 -34.5q-51 0 -86 34.5t-35 85.5z" />
<glyph unicode="&#xf7;" horiz-adv-x="1126" d="M51 401v168h1024v-168h-1024zM428 98q0 57 40 97.5t97 40.5t97 -40.5t40 -97.5t-39.5 -97t-97.5 -40q-57 0 -97 40t-40 97zM430 874q0 57 40 97.5t97 40.5t97.5 -40.5t40.5 -97.5t-40 -97t-98 -40q-57 0 -97 40t-40 97z" />
<glyph unicode="&#xf8;" horiz-adv-x="1038" d="M31 -20l131 147q-66 76 -93.5 155.5t-27.5 184.5q0 104 36 191t98.5 151.5t148.5 100.5t188 36q80 0 152.5 -21.5t130.5 -62.5l135 160l76 -68l-136 -155q66 -74 94.5 -153t28.5 -181q0 -106 -35.5 -196.5t-99 -156t-152 -102.5t-190.5 -37q-162 0 -285 90l-127 -147z M301 465q0 -39 3 -69.5t13 -86.5l361 412q-37 68 -73 96.5t-87 28.5q-47 0 -87 -29t-68.5 -80t-45 -120.5t-16.5 -151.5zM352 199q45 -72 80 -98.5t84 -26.5q47 0 87 28.5t67.5 79.5t43 124t15.5 161q0 20 -1 37.5t-2 34t-4 36t-7 46.5z" />
<glyph unicode="&#xf9;" horiz-adv-x="1167" d="M18 803v65l295 80h90v-669q0 -88 29 -128t92 -40q31 0 56.5 7t53.5 23.5t58.5 46t71.5 72.5v543h-105v74l271 71h74v-823h143v-68l-295 -73h-88v172q-51 -53 -92 -89t-79 -56.5t-76 -29t-85 -8.5q-268 0 -268 265v565h-146zM195 1413h225l244 -330h-144z" />
<glyph unicode="&#xfa;" horiz-adv-x="1167" d="M18 803v65l295 80h90v-669q0 -88 29 -128t92 -40q31 0 56.5 7t53.5 23.5t58.5 46t71.5 72.5v543h-105v74l271 71h74v-823h143v-68l-295 -73h-88v172q-51 -53 -92 -89t-79 -56.5t-76 -29t-85 -8.5q-268 0 -268 265v565h-146zM385 1083l242 330h225l-324 -330h-143z" />
<glyph unicode="&#xfb;" horiz-adv-x="1167" d="M18 803v65l295 80h90v-669q0 -88 29 -128t92 -40q31 0 56.5 7t53.5 23.5t58.5 46t71.5 72.5v543h-105v74l271 71h74v-823h143v-68l-295 -73h-88v172q-51 -53 -92 -89t-79 -56.5t-76 -29t-85 -8.5q-268 0 -268 265v565h-146zM281 1083l229 338h125l219 -338h-106l-177 181 l-174 -181h-116z" />
<glyph unicode="&#xfc;" horiz-adv-x="1167" d="M18 803v65l295 80h90v-669q0 -88 29 -128t92 -40q31 0 56.5 7t53.5 23.5t58.5 46t71.5 72.5v543h-105v74l271 71h74v-823h143v-68l-295 -73h-88v172q-51 -53 -92 -89t-79 -56.5t-76 -29t-85 -8.5q-268 0 -268 265v565h-146zM229 1174q0 51 36 85.5t85 34.5t85 -34.5 t36 -85.5q0 -49 -36 -84t-85 -35t-85 34.5t-36 84.5zM635 1171q0 51 36 86t85 35q51 0 86 -35t35 -86q0 -49 -35 -83.5t-86 -34.5q-49 0 -85 34.5t-36 83.5z" />
<glyph unicode="&#xff;" horiz-adv-x="907" d="M0 842v86h432v-86h-106l202 -496l193 496h-129v86h315v-86h-84l-342 -889q-39 -102 -90 -200.5t-100 -166.5q-14 -20 -36 -46.5t-52 -63.5l-135 141q43 27 72.5 47.5t54 40t45 42t43.5 50.5q20 27 35.5 49.5t28.5 49t27.5 58.5t31.5 75l-332 813h-74zM162 1171 q0 51 34.5 86t84.5 35q51 0 85.5 -35t34.5 -86q0 -49 -34.5 -83.5t-85.5 -34.5q-49 0 -84 34.5t-35 83.5zM549 1171q0 51 34.5 86t86.5 35q49 0 83.5 -35t34.5 -86q0 -49 -34.5 -83.5t-83.5 -34.5q-51 0 -86 34.5t-35 83.5z" />
<glyph unicode="&#x152;" horiz-adv-x="1949" d="M84 676q0 143 53 270t145.5 222.5t215.5 150.5t262 55q29 0 102 -6q78 -8 140.5 -12t87.5 -4h610v53h110v-328h-110v148h-428v-477h330v139h116v-406h-116v146h-330v-506h448v155h115v-276h-745h-53.5t-42 -2t-49 -5t-71.5 -9q-39 -4 -69.5 -7.5t-52.5 -3.5 q-139 0 -260 55.5t-212.5 150.5t-143.5 223t-52 274zM375 670q0 -121 31.5 -226.5t86 -183.5t128 -124t157.5 -46q129 0 179.5 37t50.5 133v852q0 143 -205 143q-98 0 -166 -36.5t-131 -122.5q-66 -92 -98.5 -195.5t-32.5 -230.5z" />
<glyph unicode="&#x153;" horiz-adv-x="1593" d="M41 455q0 106 36 196t100.5 156.5t152.5 103.5t192 37q182 0 318 -119q80 63 150.5 91t166.5 28q90 0 165 -26.5t129 -74.5t84 -114.5t30 -146.5v-86h-623q8 -203 86 -307.5t221 -104.5q29 0 54.5 4t55.5 16.5t67.5 34t91.5 56.5l49 -84q-76 -43 -130.5 -71t-98.5 -43 t-85 -21.5t-90 -6.5q-106 0 -185 29t-144 88q-72 -59 -147 -88t-171 -29q-102 0 -189 36t-150.5 100.5t-99.5 152.5t-36 193zM305 461q0 -84 16.5 -153.5t44 -122t66.5 -81t84 -28.5q49 0 88 28.5t67.5 81t44 125t15.5 160.5q0 172 -57.5 274.5t-151.5 102.5 q-47 0 -87 -28.5t-68.5 -80t-45 -123t-16.5 -155.5zM946 602h359v66q0 92 -39 142t-109 50q-86 0 -142.5 -68.5t-68.5 -189.5z" />
<glyph unicode="&#x178;" horiz-adv-x="1253" d="M-16 1266v86h573v-86h-151l290 -449l273 449h-174v86h477v-86h-148l-342 -561v-619h156v-86h-573v86h153v565l-405 615h-129zM311 1538q0 51 35 86t84 35q51 0 86 -35t35 -86q0 -49 -35 -84t-86 -35q-49 0 -84 35t-35 84zM776 1542q0 51 35 86t86 35q49 0 84 -35t35 -86 q0 -49 -35 -84t-84 -35q-51 0 -86 35t-35 84z" />
<glyph unicode="&#x2000;" horiz-adv-x="913" />
<glyph unicode="&#x2001;" horiz-adv-x="1827" />
<glyph unicode="&#x2002;" horiz-adv-x="913" />
<glyph unicode="&#x2003;" horiz-adv-x="1827" />
<glyph unicode="&#x2004;" horiz-adv-x="609" />
<glyph unicode="&#x2005;" horiz-adv-x="456" />
<glyph unicode="&#x2006;" horiz-adv-x="304" />
<glyph unicode="&#x2007;" horiz-adv-x="304" />
<glyph unicode="&#x2008;" horiz-adv-x="228" />
<glyph unicode="&#x2009;" horiz-adv-x="365" />
<glyph unicode="&#x200a;" horiz-adv-x="101" />
<glyph unicode="&#x2010;" horiz-adv-x="563" d="M66 354v230h426v-230h-426z" />
<glyph unicode="&#x2011;" horiz-adv-x="563" d="M66 354v230h426v-230h-426z" />
<glyph unicode="&#x2012;" horiz-adv-x="563" d="M66 354v230h426v-230h-426z" />
<glyph unicode="&#x2013;" horiz-adv-x="1126" d="M51 393v166h1024v-166h-1024z" />
<glyph unicode="&#x2014;" horiz-adv-x="2048" d="M0 391v168h2048v-168h-2048z" />
<glyph unicode="&#x2018;" d="M104 1022q0 170 222 354l84 -78q-72 -59 -101.5 -103t-29.5 -87q0 -45 23.5 -70.5t80.5 -44.5q-25 -63 -56.5 -89.5t-84.5 -26.5q-63 0 -100.5 38.5t-37.5 106.5z" />
<glyph unicode="&#x2019;" d="M88 956q72 59 101.5 103.5t29.5 87.5t-23.5 69.5t-80.5 43.5q25 66 56.5 91t84.5 25q63 0 100 -38.5t37 -104.5q0 -170 -221 -356z" />
<glyph unicode="&#x201a;" d="M94 -207q72 59 102.5 102.5t30.5 88.5q0 43 -24.5 69.5t-81.5 42.5q27 66 57.5 91.5t83.5 25.5q66 0 101.5 -38.5t35.5 -104.5q0 -170 -221 -357z" />
<glyph unicode="&#x201c;" horiz-adv-x="837" d="M113 1018q0 170 221 356l82 -80q-72 -59 -101.5 -102t-29.5 -88q0 -43 24.5 -68.5t81.5 -44.5q-27 -66 -57.5 -91.5t-83.5 -25.5q-66 0 -101.5 39t-35.5 105zM438 1018q0 170 221 356l82 -80q-72 -59 -101.5 -102t-29.5 -88q0 -43 24.5 -68.5t82.5 -44.5 q-27 -66 -57.5 -91.5t-84.5 -25.5q-66 0 -101.5 39t-35.5 105z" />
<glyph unicode="&#x201d;" horiz-adv-x="837" d="M90 956q72 59 101.5 103.5t29.5 87.5t-23.5 69.5t-80.5 43.5q25 66 56.5 91t84.5 25q63 0 100 -38.5t37 -104.5q0 -170 -221 -356zM416 956q72 59 101.5 103.5t29.5 87.5t-23.5 69.5t-81.5 43.5q25 66 56.5 91t85.5 25q63 0 100 -38.5t37 -104.5q0 -170 -221 -356z" />
<glyph unicode="&#x201e;" horiz-adv-x="837" d="M88 -207q72 59 101.5 102.5t29.5 88.5q0 43 -23.5 69.5t-80.5 42.5q25 66 56.5 91.5t84.5 25.5q63 0 100 -38.5t37 -104.5q0 -170 -221 -357zM414 -207q72 59 101.5 102.5t29.5 88.5q0 43 -23.5 69.5t-81.5 42.5q25 66 56.5 91.5t85.5 25.5q63 0 100 -38.5t37 -104.5 q0 -170 -221 -357z" />
<glyph unicode="&#x2022;" horiz-adv-x="720" d="M35 473q0 68 25.5 127t69.5 103.5t103.5 70t126.5 25.5q68 0 127.5 -25.5t103.5 -70t69.5 -103.5t25.5 -127t-25.5 -127t-69.5 -103t-103.5 -70t-127.5 -26t-127 26t-103 70t-69.5 103.5t-25.5 126.5z" />
<glyph unicode="&#x2026;" horiz-adv-x="1536" d="M119 115q0 57 40 97t97 40t97 -40t40 -97t-40 -97.5t-97 -40.5t-97 40t-40 98zM647 115q0 57 40 97t97 40t98.5 -40t41.5 -97t-41 -97.5t-99 -40.5q-57 0 -97 40t-40 98zM1159 115q0 57 40 97t97 40t97.5 -40t40.5 -97t-40 -97.5t-98 -40.5q-57 0 -97 40t-40 98z" />
<glyph unicode="&#x202f;" horiz-adv-x="365" />
<glyph unicode="&#x2039;" horiz-adv-x="702" d="M55 459l561 393v-84l-243 -309l243 -309v-87z" />
<glyph unicode="&#x203a;" horiz-adv-x="681" d="M86 63v87l242 309l-242 309v84l561 -393z" />
<glyph unicode="&#x205f;" horiz-adv-x="456" />
<glyph unicode="&#x2122;" horiz-adv-x="2048" d="M176 1155v225h68v-28h516v28h67v-225h-67v127h-191v-534h129v-58h-393v58h127v534h-188v-127h-68zM899 690v58h119v544h-119v60h260l201 -418l194 418h301v-60h-129v-544h129v-58h-395v58h129v493l-252 -551l-250 541v-483h121v-58h-309z" />
<glyph unicode="&#xe000;" horiz-adv-x="931" d="M0 0v932h932v-932h-932z" />
</font>
</defs>
</svg>
